<?xml version="1.0" encoding="UTF-8"?>
<svg width="120" height="40" clip-path="url(#clipPath_3)" fill="none" customFrame="url(#clipPath_3)" viewBox="0 0 120 40" xmlns="http://www.w3.org/2000/svg">
 <defs>
  <clipPath id="clipPath_3">
   <rect width="120" height="40" rx="6" fill="#fff"/>
  </clipPath>
 </defs>
 <rect id="Store download button" width="120" height="40" rx="6" fill="#fff"/>
 <rect id="Store download button" x=".5" y=".5" width="119" height="39" rx="5.5" stroke="#000"/>
 <g id="Apple" customFrame="url(#clipPath_4)">
  <rect id="Apple" x="8" y="8" width="20" height="24"/>
  <path id="&lt;Path&gt;" d="m24.704 20.763c0.0121-0.9199 0.2624-1.8219 0.7276-2.622 0.4651-0.8001 1.13-1.4723 1.9327-1.9541-0.51-0.7111-1.1827-1.2962-1.9648-1.709-0.7822-0.4129-1.6521-0.6419-2.5408-0.6691-1.8957-0.1942-3.7334 1.1075-4.6994 1.1075-0.9847 0-2.472-1.0882-4.0736-1.056-1.036 0.0327-2.0456 0.3268-2.9305 0.8537-0.8849 0.5268-1.615 1.2685-2.119 2.1528-2.1832 3.6903-0.55473 9.114 1.5367 12.097 1.0463 1.4607 2.2692 3.0923 3.8694 3.0345 1.5658-0.0635 2.1506-0.9749 4.0407-0.9749 1.8726 0 2.4213 0.9749 4.0539 0.9381 1.6802-0.0267 2.7388-1.4672 3.7485-2.9418 0.7518-1.0408 1.3303-2.1911 1.7141-3.4083-0.9762-0.4031-1.8092-1.0778-2.3952-1.94-0.5861-0.8622-0.8992-1.8738-0.9003-2.9085z" fill="#000"/>
  <path id="&lt;Path&gt;" d="m21.621 11.847c0.9162-1.0737 1.3675-2.4538 1.2582-3.8471-1.3996 0.14352-2.6925 0.7966-3.621 1.8291-0.4539 0.50439-0.8016 1.0912-1.0232 1.7269-0.2215 0.6357-0.3126 1.3078-0.2679 1.9778 0.7001 7e-3 1.3926-0.1411 2.0256-0.4333 0.6329-0.2921 1.1897-0.7207 1.6283-1.2534z" fill="#000"/>
 </g>
 <g id="Content" customFrame="url(#clipPath_5)">
  <rect id="Content" x="36" y="8" width="78" height="24"/>
  <path id="Télécharger dans" d="m40.192 9.74v0.744h-1.48v4.816h-0.912v-4.816h-1.488v-0.744h3.88zm4.9636 3.248c0 0.1653-0.0106 0.3147-0.032 0.448h-3.368c0.0267 0.352 0.1574 0.6347 0.392 0.848 0.2347 0.2133 0.5227 0.32 0.864 0.32 0.4907 0 0.8374-0.2053 1.04-0.616h0.984c-0.1333 0.4053-0.376 0.7387-0.728 1-0.3466 0.256-0.7786 0.384-1.296 0.384-0.4213 0-0.8-0.0933-1.136-0.28-0.3306-0.192-0.592-0.4587-0.784-0.8-0.1866-0.3467-0.28-0.7467-0.28-1.2s0.0907-0.8507 0.272-1.192c0.1867-0.3467 0.4454-0.6133 0.776-0.8 0.336-0.1867 0.72-0.28 1.152-0.28 0.416 0 0.7867 0.0907 1.112 0.272 0.3254 0.1813 0.5787 0.4373 0.76 0.768 0.1814 0.3253 0.272 0.7013 0.272 1.128zm-0.952-0.288c-0.0053-0.336-0.1253-0.6053-0.36-0.808-0.2346-0.2027-0.5253-0.304-0.872-0.304-0.3146 0-0.584 0.1013-0.808 0.304-0.224 0.1973-0.3573 0.4667-0.4 0.808h2.44zm-0.392-2.992-1.768 0.872v-0.672l1.768-0.976v0.776zm3.1535-0.328v5.92h-0.912v-5.92h0.912zm5.2374 3.608c0 0.1653-0.0107 0.3147-0.032 0.448h-3.368c0.0267 0.352 0.1573 0.6347 0.392 0.848s0.5227 0.32 0.864 0.32c0.4907 0 0.8373-0.2053 1.04-0.616h0.984c-0.1333 0.4053-0.376 0.7387-0.728 1-0.3467 0.256-0.7787 0.384-1.296 0.384-0.4213 0-0.8-0.0933-1.136-0.28-0.3307-0.192-0.592-0.4587-0.784-0.8-0.1867-0.3467-0.28-0.7467-0.28-1.2s0.0907-0.8507 0.272-1.192c0.1867-0.3467 0.4453-0.6133 0.776-0.8 0.336-0.1867 0.72-0.28 1.152-0.28 0.416 0 0.7867 0.0907 1.112 0.272s0.5787 0.4373 0.76 0.768c0.1813 0.3253 0.272 0.7013 0.272 1.128zm-0.952-0.288c-0.0053-0.336-0.1253-0.6053-0.36-0.808s-0.5253-0.304-0.872-0.304c-0.3147 0-0.584 0.1013-0.808 0.304-0.224 0.1973-0.3573 0.4667-0.4 0.808h2.44zm-0.392-2.992-1.768 0.872v-0.672l1.768-0.976v0.776zm1.9375 3.384c0-0.4533 0.0907-0.8507 0.272-1.192 0.1867-0.3467 0.4427-0.6133 0.768-0.8s0.6987-0.28 1.12-0.28c0.5333 0 0.9733 0.128 1.32 0.384 0.352 0.2507 0.5893 0.6107 0.712 1.08h-0.984c-0.08-0.2187-0.208-0.3893-0.384-0.512s-0.3973-0.184-0.664-0.184c-0.3733 0-0.672 0.1333-0.896 0.4-0.2187 0.2613-0.328 0.6293-0.328 1.104s0.1093 0.8453 0.328 1.112c0.224 0.2667 0.5227 0.4 0.896 0.4 0.528 0 0.8773-0.232 1.048-0.696h0.984c-0.128 0.448-0.368 0.8053-0.72 1.072-0.352 0.2613-0.7893 0.392-1.312 0.392-0.4213 0-0.7947-0.0933-1.12-0.28-0.3253-0.192-0.5813-0.4587-0.768-0.8-0.1813-0.3467-0.272-0.7467-0.272-1.2zm7.3809-2.272c0.336 0 0.6346 0.072 0.896 0.216 0.2666 0.144 0.4746 0.3573 0.624 0.64 0.1546 0.2827 0.232 0.624 0.232 1.024v2.6h-0.904v-2.464c0-0.3947-0.0987-0.696-0.296-0.904-0.1974-0.2133-0.4667-0.32-0.808-0.32-0.3414 0-0.6134 0.1067-0.816 0.32-0.1974 0.208-0.296 0.5093-0.296 0.904v2.464h-0.912v-5.92h0.912v2.024c0.1546-0.1867 0.3493-0.3307 0.584-0.432 0.24-0.1013 0.5013-0.152 0.784-0.152zm2.6113 2.256c0-0.4427 0.0907-0.8347 0.272-1.176 0.1867-0.3413 0.4373-0.6053 0.752-0.792 0.32-0.192 0.672-0.288 1.056-0.288 0.3467 0 0.648 0.0693 0.904 0.208 0.2613 0.1333 0.4693 0.3013 0.624 0.504v-0.64h0.92v4.408h-0.92v-0.656c-0.1547 0.208-0.3653 0.3813-0.632 0.52s-0.5707 0.208-0.912 0.208c-0.3787 0-0.7253-0.096-1.04-0.288-0.3147-0.1973-0.5653-0.4693-0.752-0.816-0.1813-0.352-0.272-0.7493-0.272-1.192zm3.608 0.016c0-0.304-0.064-0.568-0.192-0.792-0.1227-0.224-0.2853-0.3947-0.488-0.512s-0.4213-0.176-0.656-0.176-0.4533 0.0587-0.656 0.176c-0.2027 0.112-0.368 0.28-0.496 0.504-0.1227 0.2187-0.184 0.48-0.184 0.784s0.0613 0.5707 0.184 0.8c0.128 0.2293 0.2933 0.4053 0.496 0.528 0.208 0.1173 0.4267 0.176 0.656 0.176 0.2347 0 0.4533-0.0587 0.656-0.176s0.3653-0.288 0.488-0.512c0.128-0.2293 0.192-0.496 0.192-0.8zm3.0299-1.56c0.1333-0.224 0.3093-0.3973 0.528-0.52 0.224-0.128 0.488-0.192 0.792-0.192v0.944h-0.232c-0.3574 0-0.6294 0.0907-0.816 0.272-0.1814 0.1813-0.272 0.496-0.272 0.944v2.32h-0.912v-4.408h0.912v0.64zm3.9343-0.712c0.3413 0 0.6426 0.0693 0.904 0.208 0.2666 0.1333 0.4746 0.3013 0.624 0.504v-0.64h0.92v4.48c0 0.4053-0.0854 0.7653-0.256 1.08-0.1707 0.32-0.4187 0.5707-0.744 0.752-0.32 0.1813-0.704 0.272-1.152 0.272-0.5974 0-1.0934-0.1413-1.488-0.424-0.3947-0.2773-0.6187-0.656-0.672-1.136h0.904c0.0693 0.2293 0.216 0.4133 0.44 0.552 0.2293 0.144 0.5013 0.216 0.816 0.216 0.368 0 0.664-0.112 0.888-0.336 0.2293-0.224 0.344-0.5493 0.344-0.976v-0.736c-0.1547 0.208-0.3654 0.384-0.632 0.528-0.2614 0.1387-0.56 0.208-0.896 0.208-0.384 0-0.736-0.096-1.056-0.288-0.3147-0.1973-0.5654-0.4693-0.752-0.816-0.1814-0.352-0.272-0.7493-0.272-1.192s0.0906-0.8347 0.272-1.176c0.1866-0.3413 0.4373-0.6053 0.752-0.792 0.32-0.192 0.672-0.288 1.056-0.288zm1.528 2.272c0-0.304-0.064-0.568-0.192-0.792-0.1227-0.224-0.2854-0.3947-0.488-0.512-0.2027-0.1173-0.4214-0.176-0.656-0.176-0.2347 0-0.4534 0.0587-0.656 0.176-0.2027 0.112-0.368 0.28-0.496 0.504-0.1227 0.2187-0.184 0.48-0.184 0.784s0.0613 0.5707 0.184 0.8c0.128 0.2293 0.2933 0.4053 0.496 0.528 0.208 0.1173 0.4266 0.176 0.656 0.176 0.2346 0 0.4533-0.0587 0.656-0.176 0.2026-0.1173 0.3653-0.288 0.488-0.512 0.128-0.2293 0.192-0.496 0.192-0.8zm6.1578-0.104c0 0.1653-0.0106 0.3147-0.0319 0.448h-3.368c0.0266 0.352 0.1573 0.6347 0.392 0.848 0.2346 0.2133 0.5226 0.32 0.864 0.32 0.4906 0 0.8373-0.2053 1.0399-0.616h0.9841c-0.1334 0.4053-0.3761 0.7387-0.7281 1-0.3466 0.256-0.7786 0.384-1.2959 0.384-0.4214 0-0.8001-0.0933-1.136-0.28-0.3307-0.192-0.592-0.4587-0.784-0.8-0.1867-0.3467-0.28-0.7467-0.28-1.2s0.0906-0.8507 0.272-1.192c0.1866-0.3467 0.4453-0.6133 0.776-0.8 0.336-0.1867 0.7199-0.28 1.152-0.28 0.416 0 0.7866 0.0907 1.112 0.272 0.3253 0.1813 0.5786 0.4373 0.7599 0.768 0.1814 0.3253 0.272 0.7013 0.272 1.128zm-0.9519-0.288c-0.0054-0.336-0.1254-0.6053-0.36-0.808-0.2347-0.2027-0.5254-0.304-0.872-0.304-0.3147 0-0.584 0.1013-0.8081 0.304-0.224 0.1973-0.3573 0.4667-0.3999 0.808h2.44zm2.7615-1.168c0.1333-0.224 0.3093-0.3973 0.528-0.52 0.2239-0.128 0.4879-0.192 0.792-0.192v0.944h-0.2321c-0.3573 0-0.6293 0.0907-0.816 0.272-0.1813 0.1813-0.2719 0.496-0.2719 0.944v2.32h-0.9121v-4.408h0.9121v0.64zm3.9324 1.544c0-0.4427 0.0907-0.8347 0.272-1.176 0.1867-0.3413 0.4373-0.6053 0.752-0.792 0.32-0.192 0.6747-0.288 1.064-0.288 0.288 0 0.5707 0.064 0.848 0.192 0.2827 0.1227 0.5067 0.288 0.672 0.496v-2.128h0.92v5.92h-0.92v-0.664c-0.1493 0.2133-0.3574 0.3893-0.624 0.528-0.2614 0.1387-0.5627 0.208-0.904 0.208-0.384 0-0.736-0.096-1.056-0.288-0.3147-0.1973-0.5653-0.4693-0.752-0.816-0.1813-0.352-0.272-0.7493-0.272-1.192zm3.608 0.016c0-0.304-0.064-0.568-0.192-0.792-0.1227-0.224-0.2853-0.3947-0.488-0.512s-0.4213-0.176-0.656-0.176-0.4533 0.0587-0.656 0.176c-0.2027 0.112-0.368 0.28-0.496 0.504-0.1227 0.2187-0.184 0.48-0.184 0.784s0.0613 0.5707 0.184 0.8c0.128 0.2293 0.2933 0.4053 0.496 0.528 0.208 0.1173 0.4267 0.176 0.656 0.176 0.2347 0 0.4533-0.0587 0.656-0.176s0.3653-0.288 0.488-0.512c0.128-0.2293 0.192-0.496 0.192-0.8zm1.8139-0.016c0-0.4427 0.0906-0.8347 0.272-1.176 0.1866-0.3413 0.4373-0.6053 0.752-0.792 0.32-0.192 0.672-0.288 1.056-0.288 0.3466 0 0.648 0.0693 0.904 0.208 0.2613 0.1333 0.4693 0.3013 0.624 0.504v-0.64h0.92v4.408h-0.92v-0.656c-0.1547 0.208-0.3654 0.3813-0.632 0.52-0.2667 0.1387-0.5707 0.208-0.912 0.208-0.3787 0-0.7254-0.096-1.04-0.288-0.3147-0.1973-0.5654-0.4693-0.752-0.816-0.1814-0.352-0.272-0.7493-0.272-1.192zm3.608 0.016c0-0.304-0.064-0.568-0.192-0.792-0.1227-0.224-0.2854-0.3947-0.488-0.512-0.2027-0.1173-0.4214-0.176-0.656-0.176-0.2347 0-0.4534 0.0587-0.656 0.176-0.2027 0.112-0.368 0.28-0.496 0.504-0.1227 0.2187-0.184 0.48-0.184 0.784s0.0613 0.5707 0.184 0.8c0.128 0.2293 0.2933 0.4053 0.496 0.528 0.208 0.1173 0.4266 0.176 0.656 0.176 0.2346 0 0.4533-0.0587 0.656-0.176 0.2026-0.1173 0.3653-0.288 0.488-0.512 0.128-0.2293 0.192-0.496 0.192-0.8zm4.3419-2.272c0.347 0 0.656 0.072 0.928 0.216 0.277 0.144 0.493 0.3573 0.648 0.64s0.232 0.624 0.232 1.024v2.6h-0.904v-2.464c0-0.3947-0.099-0.696-0.296-0.904-0.197-0.2133-0.467-0.32-0.8081-0.32-0.3413 0-0.6133 0.1067-0.816 0.32-0.1973 0.208-0.296 0.5093-0.296 0.904v2.464h-0.912v-4.408h0.912v0.504c0.1494-0.1813 0.3387-0.3227 0.568-0.424 0.2347-0.1013 0.4827-0.152 0.7441-0.152zm4.571 4.552c-0.346 0-0.658-0.0613-0.936-0.184-0.272-0.128-0.488-0.2987-0.648-0.512-0.16-0.2187-0.245-0.4613-0.256-0.728h0.944c0.016 0.1867 0.104 0.344 0.264 0.472 0.166 0.1227 0.371 0.184 0.616 0.184 0.256 0 0.454-0.048 0.592-0.144 0.144-0.1013 0.216-0.2293 0.216-0.384 0-0.1653-0.08-0.288-0.24-0.368-0.154-0.08-0.402-0.168-0.744-0.264-0.33-0.0907-0.6-0.1787-0.808-0.264s-0.389-0.216-0.544-0.392c-0.149-0.176-0.224-0.408-0.224-0.696 0-0.2347 0.07-0.448 0.208-0.64 0.139-0.1973 0.336-0.352 0.592-0.464 0.262-0.112 0.56-0.168 0.896-0.168 0.502 0 0.904 0.128 1.208 0.384 0.31 0.2507 0.475 0.5947 0.496 1.032h-0.912c-0.016-0.1973-0.096-0.3547-0.24-0.472s-0.338-0.176-0.584-0.176c-0.24 0-0.424 0.0453-0.552 0.136s-0.192 0.2107-0.192 0.36c0 0.1173 0.043 0.216 0.128 0.296 0.086 0.08 0.19 0.144 0.312 0.192 0.123 0.0427 0.304 0.0987 0.544 0.168 0.32 0.0853 0.582 0.1733 0.784 0.264 0.208 0.0853 0.387 0.2133 0.536 0.384 0.15 0.1707 0.227 0.3973 0.232 0.68 0 0.2507-0.069 0.4747-0.208 0.672-0.138 0.1973-0.336 0.352-0.592 0.464-0.25 0.112-0.546 0.168-0.888 0.168z" fill="#000"/>
  <path id="l’App Store" d="m38.835 18.65v11.1h-1.71v-11.1h1.71zm2.0451 0.675h1.86l-1.575 3.57h-1.2l0.915-3.57zm9.1778 8.295h-4.365l-0.75 2.13h-1.785l3.735-10.44h1.98l3.735 10.44h-1.8l-0.75-2.13zm-0.48-1.395-1.695-4.845-1.71 4.845h3.405zm5.894-3.525c0.29-0.38 0.685-0.7 1.185-0.96s1.065-0.39 1.695-0.39c0.72 0 1.375 0.18 1.965 0.54 0.6 0.35 1.07 0.845 1.41 1.485s0.51 1.375 0.51 2.205-0.17 1.575-0.51 2.235c-0.34 0.65-0.81 1.16-1.41 1.53-0.59 0.36-1.245 0.54-1.965 0.54-0.63 0-1.19-0.125-1.68-0.375-0.49-0.26-0.89-0.58-1.2-0.96v5.13h-1.71v-12.195h1.71v1.215zm5.025 2.88c0-0.57-0.12-1.06-0.36-1.47-0.23-0.42-0.54-0.735-0.93-0.945-0.38-0.22-0.79-0.33-1.23-0.33-0.43 0-0.84 0.11-1.23 0.33-0.38 0.22-0.69 0.54-0.93 0.96-0.23 0.42-0.345 0.915-0.345 1.485s0.115 1.07 0.345 1.5c0.24 0.42 0.55 0.74 0.93 0.96 0.39 0.22 0.8 0.33 1.23 0.33 0.44 0 0.85-0.11 1.23-0.33 0.39-0.23 0.7-0.56 0.93-0.99 0.24-0.43 0.36-0.93 0.36-1.5zm4.671-2.88c0.29-0.38 0.685-0.7 1.185-0.96s1.065-0.39 1.695-0.39c0.72 0 1.375 0.18 1.965 0.54 0.6 0.35 1.07 0.845 1.41 1.485s0.51 1.375 0.51 2.205-0.17 1.575-0.51 2.235c-0.34 0.65-0.81 1.16-1.41 1.53-0.59 0.36-1.245 0.54-1.965 0.54-0.63 0-1.19-0.125-1.68-0.375-0.49-0.26-0.89-0.58-1.2-0.96v5.13h-1.71v-12.195h1.71v1.215zm5.025 2.88c0-0.57-0.12-1.06-0.36-1.47-0.23-0.42-0.54-0.735-0.93-0.945-0.38-0.22-0.79-0.33-1.23-0.33-0.43 0-0.84 0.11-1.23 0.33-0.38 0.22-0.69 0.54-0.93 0.96-0.23 0.42-0.345 0.915-0.345 1.485s0.115 1.07 0.345 1.5c0.24 0.42 0.55 0.74 0.93 0.96 0.39 0.22 0.8 0.33 1.23 0.33 0.44 0 0.85-0.11 1.23-0.33 0.39-0.23 0.7-0.56 0.93-0.99 0.24-0.43 0.36-0.93 0.36-1.5zm9.8225 4.275c-0.7 0-1.33-0.12-1.89-0.36-0.56-0.25-1-0.6-1.32-1.05s-0.48-0.975-0.48-1.575h1.83c0.04 0.45 0.215 0.82 0.525 1.11 0.32 0.29 0.765 0.435 1.335 0.435 0.59 0 1.05-0.14 1.38-0.42 0.33-0.29 0.495-0.66 0.495-1.11 0-0.35-0.105-0.635-0.315-0.855-0.2-0.22-0.455-0.39-0.765-0.51-0.3-0.12-0.72-0.25-1.26-0.39-0.68-0.18-1.235-0.36-1.665-0.54-0.42-0.19-0.78-0.48-1.08-0.87s-0.45-0.91-0.45-1.56c0-0.6 0.15-1.125 0.45-1.575s0.72-0.795 1.26-1.035 1.165-0.36 1.875-0.36c1.01 0 1.835 0.255 2.475 0.765 0.65 0.5 1.01 1.19 1.08 2.07h-1.89c-0.03-0.38-0.21-0.705-0.54-0.975s-0.765-0.405-1.305-0.405c-0.49 0-0.89 0.125-1.2 0.375s-0.465 0.61-0.465 1.08c0 0.32 0.095 0.585 0.285 0.795 0.2 0.2 0.45 0.36 0.75 0.48s0.71 0.25 1.23 0.39c0.69 0.19 1.25 0.38 1.68 0.57 0.44 0.19 0.81 0.485 1.11 0.885 0.31 0.39 0.465 0.915 0.465 1.575 0 0.53-0.145 1.03-0.435 1.5-0.28 0.47-0.695 0.85-1.245 1.14-0.54 0.28-1.18 0.42-1.92 0.42zm7.1427-6.975v4.575c0 0.31 0.07 0.535 0.21 0.675 0.15 0.13 0.4 0.195 0.75 0.195h1.05v1.425h-1.35c-0.77 0-1.36-0.18-1.77-0.54s-0.615-0.945-0.615-1.755v-4.575h-0.975v-1.395h0.975v-2.055h1.725v2.055h2.01v1.395h-2.01zm6.7011 7.005c-0.78 0-1.485-0.175-2.115-0.525-0.63-0.36-1.125-0.86-1.485-1.5-0.36-0.65-0.54-1.4-0.54-2.25 0-0.84 0.185-1.585 0.555-2.235s0.875-1.15 1.515-1.5 1.355-0.525 2.145-0.525 1.505 0.175 2.145 0.525 1.145 0.85 1.515 1.5 0.555 1.395 0.555 2.235-0.19 1.585-0.57 2.235-0.9 1.155-1.56 1.515c-0.65 0.35-1.37 0.525-2.16 0.525zm0-1.485c0.44 0 0.85-0.105 1.23-0.315 0.39-0.21 0.705-0.525 0.945-0.945s0.36-0.93 0.36-1.53-0.115-1.105-0.345-1.515c-0.23-0.42-0.535-0.735-0.915-0.945s-0.79-0.315-1.23-0.315-0.85 0.105-1.23 0.315c-0.37 0.21-0.665 0.525-0.885 0.945-0.22 0.41-0.33 0.915-0.33 1.515 0 0.89 0.225 1.58 0.675 2.07 0.46 0.48 1.035 0.72 1.725 0.72zm7.2208-5.715c0.25-0.42 0.58-0.745 0.99-0.975 0.42-0.24 0.915-0.36 1.485-0.36v1.77h-0.435c-0.67 0-1.18 0.17-1.53 0.51-0.34 0.34-0.51 0.93-0.51 1.77v4.35h-1.7104v-8.265h1.7104v1.2zm11.151 2.73c0 0.31-0.02 0.59-0.06 0.84h-6.315c0.05 0.66 0.295 1.19 0.735 1.59s0.98 0.6 1.62 0.6c0.92 0 1.57-0.385 1.95-1.155h1.845c-0.25 0.76-0.705 1.385-1.365 1.875-0.65 0.48-1.46 0.72-2.43 0.72-0.79 0-1.5-0.175-2.13-0.525-0.62-0.36-1.11-0.86-1.47-1.5-0.35-0.65-0.525-1.4-0.525-2.25s0.17-1.595 0.51-2.235c0.35-0.65 0.835-1.15 1.455-1.5 0.63-0.35 1.35-0.525 2.16-0.525 0.78 0 1.475 0.17 2.085 0.51s1.085 0.82 1.425 1.44c0.34 0.61 0.51 1.315 0.51 2.115zm-1.785-0.54c-0.01-0.63-0.235-1.135-0.675-1.515s-0.985-0.57-1.635-0.57c-0.59 0-1.095 0.19-1.515 0.57-0.42 0.37-0.67 0.875-0.75 1.515h4.575z" fill="#000"/>
 </g>
</svg>
