<svg viewBox="0 0 120 40" xmlns="http://www.w3.org/2000/svg" xmlns:xlink="http://www.w3.org/1999/xlink" width="120.000000" height="40.000000" fill="none" clip-path="url(#clipPath_3)" customFrame="url(#clipPath_3)">
	<defs>
		<clipPath id="clipPath_3">
			<rect width="120.000000" height="40.000000" x="0.000000" y="0.000000" rx="6.000000" fill="rgb(255,255,255)" />
		</clipPath>
		<clipPath id="clipPath_4">
			<rect width="20.000000" height="24.000000" x="8.000000" y="8.000000" fill="rgb(255,255,255)" />
		</clipPath>
		<clipPath id="clipPath_5">
			<rect width="78.000000" height="24.000000" x="36.000000" y="8.000000" fill="rgb(255,255,255)" />
		</clipPath>
	</defs>
	<rect id="Store download button" width="120.000000" height="40.000000" x="0.000000" y="0.000000" rx="6.000000" fill="rgb(255,255,255)" />
	<rect id="Store download button" width="119.000000" height="39.000000" x="0.500000" y="0.500000" rx="5.500000" stroke="rgb(0,0,0)" stroke-width="1" />
	<g id="Apple" customFrame="url(#clipPath_4)">
		<rect id="Apple" width="20.000000" height="24.000000" x="8.000000" y="8.000000" />
		<path id="&lt;Path>" d="M24.7045 20.763C24.7166 19.8431 24.9669 18.9411 25.4321 18.141C25.8972 17.3409 26.5621 16.6687 27.3648 16.1869C26.8548 15.4758 26.1821 14.8907 25.4 14.4779C24.6178 14.065 23.7479 13.836 22.8592 13.8088C20.9635 13.6146 19.1258 14.9163 18.1598 14.9163C17.1751 14.9163 15.6878 13.8281 14.0862 13.8603C13.0502 13.893 12.0406 14.1871 11.1557 14.714C10.2708 15.2408 9.54075 15.9825 9.03674 16.8668C6.85352 20.5571 8.48201 25.9808 10.5734 28.9639C11.6197 30.4246 12.8426 32.0562 14.4428 31.9984C16.0086 31.9349 16.5934 31.0235 18.4835 31.0235C20.3561 31.0235 20.9048 31.9984 22.5374 31.9616C24.2176 31.9349 25.2762 30.4944 26.2859 29.0198C27.0377 27.979 27.6162 26.8287 28 25.6115C27.0238 25.2084 26.1908 24.5337 25.6048 23.6715C25.0187 22.8093 24.7056 21.7977 24.7045 20.763Z" fill="rgb(0,0,0)" fill-rule="nonzero" />
		<path id="&lt;Path>" d="M21.621 11.8471C22.5372 10.7734 22.9885 9.39335 22.8792 8C21.4796 8.14352 20.1867 8.7966 19.2582 9.82911C18.8043 10.3335 18.4566 10.9203 18.235 11.556C18.0135 12.1917 17.9224 12.8638 17.9671 13.5338C18.6672 13.5408 19.3597 13.3927 19.9927 13.1005C20.6256 12.8084 21.1824 12.3798 21.621 11.8471Z" fill="rgb(0,0,0)" fill-rule="nonzero" />
	</g>
	<g id="Content" customFrame="url(#clipPath_5)">
		<rect id="Content" width="78.000000" height="24.000000" x="36.000000" y="8.000000" />
		<path id="Télécharger dans" d="M40.192 9.74L40.192 10.484L38.712 10.484L38.712 15.3L37.8 15.3L37.8 10.484L36.312 10.484L36.312 9.74L40.192 9.74ZM45.1556 12.988C45.1556 13.1533 45.145 13.3027 45.1236 13.436L41.7556 13.436C41.7823 13.788 41.913 14.0707 42.1476 14.284C42.3823 14.4973 42.6703 14.604 43.0116 14.604C43.5023 14.604 43.849 14.3987 44.0516 13.988L45.0356 13.988C44.9023 14.3933 44.6596 14.7267 44.3076 14.988C43.961 15.244 43.529 15.372 43.0116 15.372C42.5903 15.372 42.2116 15.2787 41.8756 15.092C41.545 14.9 41.2836 14.6333 41.0916 14.292C40.905 13.9453 40.8116 13.5453 40.8116 13.092C40.8116 12.6387 40.9023 12.2413 41.0836 11.9C41.2703 11.5533 41.529 11.2867 41.8596 11.1C42.1956 10.9133 42.5796 10.82 43.0116 10.82C43.4276 10.82 43.7983 10.9107 44.1236 11.092C44.449 11.2733 44.7023 11.5293 44.8836 11.86C45.065 12.1853 45.1556 12.5613 45.1556 12.988ZM44.2036 12.7C44.1983 12.364 44.0783 12.0947 43.8436 11.892C43.609 11.6893 43.3183 11.588 42.9716 11.588C42.657 11.588 42.3876 11.6893 42.1636 11.892C41.9396 12.0893 41.8063 12.3587 41.7636 12.7L44.2036 12.7ZM43.8116 9.708L42.0436 10.58L42.0436 9.908L43.8116 8.932L43.8116 9.708ZM46.9651 9.38L46.9651 15.3L46.0531 15.3L46.0531 9.38L46.9651 9.38ZM52.2025 12.988C52.2025 13.1533 52.1918 13.3027 52.1705 13.436L48.8025 13.436C48.8292 13.788 48.9598 14.0707 49.1945 14.284C49.4292 14.4973 49.7172 14.604 50.0585 14.604C50.5492 14.604 50.8958 14.3987 51.0985 13.988L52.0825 13.988C51.9492 14.3933 51.7065 14.7267 51.3545 14.988C51.0078 15.244 50.5758 15.372 50.0585 15.372C49.6372 15.372 49.2585 15.2787 48.9225 15.092C48.5918 14.9 48.3305 14.6333 48.1385 14.292C47.9518 13.9453 47.8585 13.5453 47.8585 13.092C47.8585 12.6387 47.9492 12.2413 48.1305 11.9C48.3172 11.5533 48.5758 11.2867 48.9065 11.1C49.2425 10.9133 49.6265 10.82 50.0585 10.82C50.4745 10.82 50.8452 10.9107 51.1705 11.092C51.4958 11.2733 51.7492 11.5293 51.9305 11.86C52.1118 12.1853 52.2025 12.5613 52.2025 12.988ZM51.2505 12.7C51.2452 12.364 51.1252 12.0947 50.8905 11.892C50.6558 11.6893 50.3652 11.588 50.0185 11.588C49.7038 11.588 49.4345 11.6893 49.2105 11.892C48.9865 12.0893 48.8532 12.3587 48.8105 12.7L51.2505 12.7ZM50.8585 9.708L49.0905 10.58L49.0905 9.908L50.8585 8.932L50.8585 9.708ZM52.796 13.092C52.796 12.6387 52.8867 12.2413 53.068 11.9C53.2547 11.5533 53.5107 11.2867 53.836 11.1C54.1613 10.9133 54.5347 10.82 54.956 10.82C55.4893 10.82 55.9293 10.948 56.276 11.204C56.628 11.4547 56.8653 11.8147 56.988 12.284L56.004 12.284C55.924 12.0653 55.796 11.8947 55.62 11.772C55.444 11.6493 55.2227 11.588 54.956 11.588C54.5827 11.588 54.284 11.7213 54.06 11.988C53.8413 12.2493 53.732 12.6173 53.732 13.092C53.732 13.5667 53.8413 13.9373 54.06 14.204C54.284 14.4707 54.5827 14.604 54.956 14.604C55.484 14.604 55.8333 14.372 56.004 13.908L56.988 13.908C56.86 14.356 56.62 14.7133 56.268 14.98C55.916 15.2413 55.4787 15.372 54.956 15.372C54.5347 15.372 54.1613 15.2787 53.836 15.092C53.5107 14.9 53.2547 14.6333 53.068 14.292C52.8867 13.9453 52.796 13.5453 52.796 13.092ZM60.1769 10.82C60.5129 10.82 60.8115 10.892 61.0729 11.036C61.3395 11.18 61.5475 11.3933 61.6969 11.676C61.8515 11.9587 61.9289 12.3 61.9289 12.7L61.9289 15.3L61.0249 15.3L61.0249 12.836C61.0249 12.4413 60.9262 12.14 60.7289 11.932C60.5315 11.7187 60.2622 11.612 59.9209 11.612C59.5795 11.612 59.3075 11.7187 59.1049 11.932C58.9075 12.14 58.8089 12.4413 58.8089 12.836L58.8089 15.3L57.8969 15.3L57.8969 9.38L58.8089 9.38L58.8089 11.404C58.9635 11.2173 59.1582 11.0733 59.3929 10.972C59.6329 10.8707 59.8942 10.82 60.1769 10.82ZM62.7882 13.076C62.7882 12.6333 62.8789 12.2413 63.0602 11.9C63.2469 11.5587 63.4975 11.2947 63.8122 11.108C64.1322 10.916 64.4842 10.82 64.8682 10.82C65.2149 10.82 65.5162 10.8893 65.7722 11.028C66.0335 11.1613 66.2415 11.3293 66.3962 11.532L66.3962 10.892L67.3162 10.892L67.3162 15.3L66.3962 15.3L66.3962 14.644C66.2415 14.852 66.0309 15.0253 65.7642 15.164C65.4975 15.3027 65.1935 15.372 64.8522 15.372C64.4735 15.372 64.1269 15.276 63.8122 15.084C63.4975 14.8867 63.2469 14.6147 63.0602 14.268C62.8789 13.916 62.7882 13.5187 62.7882 13.076ZM66.3962 13.092C66.3962 12.788 66.3322 12.524 66.2042 12.3C66.0815 12.076 65.9189 11.9053 65.7162 11.788C65.5135 11.6707 65.2949 11.612 65.0602 11.612C64.8255 11.612 64.6069 11.6707 64.4042 11.788C64.2015 11.9 64.0362 12.068 63.9082 12.292C63.7855 12.5107 63.7242 12.772 63.7242 13.076C63.7242 13.38 63.7855 13.6467 63.9082 13.876C64.0362 14.1053 64.2015 14.2813 64.4042 14.404C64.6122 14.5213 64.8309 14.58 65.0602 14.58C65.2949 14.58 65.5135 14.5213 65.7162 14.404C65.9189 14.2867 66.0815 14.116 66.2042 13.892C66.3322 13.6627 66.3962 13.396 66.3962 13.092ZM69.4261 11.532C69.5594 11.308 69.7354 11.1347 69.9541 11.012C70.1781 10.884 70.4421 10.82 70.7461 10.82L70.7461 11.764L70.5141 11.764C70.1567 11.764 69.8847 11.8547 69.6981 12.036C69.5167 12.2173 69.4261 12.532 69.4261 12.98L69.4261 15.3L68.5141 15.3L68.5141 10.892L69.4261 10.892L69.4261 11.532ZM73.3604 10.82C73.7017 10.82 74.003 10.8893 74.2644 11.028C74.531 11.1613 74.739 11.3293 74.8884 11.532L74.8884 10.892L75.8084 10.892L75.8084 15.372C75.8084 15.7773 75.723 16.1373 75.5524 16.452C75.3817 16.772 75.1337 17.0227 74.8084 17.204C74.4884 17.3853 74.1044 17.476 73.6564 17.476C73.059 17.476 72.563 17.3347 72.1684 17.052C71.7737 16.7747 71.5497 16.396 71.4964 15.916L72.4004 15.916C72.4697 16.1453 72.6164 16.3293 72.8404 16.468C73.0697 16.612 73.3417 16.684 73.6564 16.684C74.0244 16.684 74.3204 16.572 74.5444 16.348C74.7737 16.124 74.8884 15.7987 74.8884 15.372L74.8884 14.636C74.7337 14.844 74.523 15.02 74.2564 15.164C73.995 15.3027 73.6964 15.372 73.3604 15.372C72.9764 15.372 72.6244 15.276 72.3044 15.084C71.9897 14.8867 71.739 14.6147 71.5524 14.268C71.371 13.916 71.2804 13.5187 71.2804 13.076C71.2804 12.6333 71.371 12.2413 71.5524 11.9C71.739 11.5587 71.9897 11.2947 72.3044 11.108C72.6244 10.916 72.9764 10.82 73.3604 10.82ZM74.8884 13.092C74.8884 12.788 74.8244 12.524 74.6964 12.3C74.5737 12.076 74.411 11.9053 74.2084 11.788C74.0057 11.6707 73.787 11.612 73.5524 11.612C73.3177 11.612 73.099 11.6707 72.8964 11.788C72.6937 11.9 72.5284 12.068 72.4004 12.292C72.2777 12.5107 72.2164 12.772 72.2164 13.076C72.2164 13.38 72.2777 13.6467 72.4004 13.876C72.5284 14.1053 72.6937 14.2813 72.8964 14.404C73.1044 14.5213 73.323 14.58 73.5524 14.58C73.787 14.58 74.0057 14.5213 74.2084 14.404C74.411 14.2867 74.5737 14.116 74.6964 13.892C74.8244 13.6627 74.8884 13.396 74.8884 13.092ZM81.0462 12.988C81.0462 13.1533 81.0356 13.3027 81.0143 13.436L77.6463 13.436C77.6729 13.788 77.8036 14.0707 78.0383 14.284C78.2729 14.4973 78.5609 14.604 78.9023 14.604C79.3929 14.604 79.7396 14.3987 79.9422 13.988L80.9263 13.988C80.7929 14.3933 80.5502 14.7267 80.1982 14.988C79.8516 15.244 79.4196 15.372 78.9023 15.372C78.4809 15.372 78.1022 15.2787 77.7663 15.092C77.4356 14.9 77.1743 14.6333 76.9823 14.292C76.7956 13.9453 76.7023 13.5453 76.7023 13.092C76.7023 12.6387 76.7929 12.2413 76.9743 11.9C77.1609 11.5533 77.4196 11.2867 77.7503 11.1C78.0863 10.9133 78.4702 10.82 78.9023 10.82C79.3183 10.82 79.6889 10.9107 80.0143 11.092C80.3396 11.2733 80.5929 11.5293 80.7742 11.86C80.9556 12.1853 81.0462 12.5613 81.0462 12.988ZM80.0943 12.7C80.0889 12.364 79.9689 12.0947 79.7343 11.892C79.4996 11.6893 79.2089 11.588 78.8623 11.588C78.5476 11.588 78.2783 11.6893 78.0542 11.892C77.8302 12.0893 77.6969 12.3587 77.6543 12.7L80.0943 12.7ZM82.8558 11.532C82.9891 11.308 83.1651 11.1347 83.3838 11.012C83.6077 10.884 83.8717 10.82 84.1758 10.82L84.1758 11.764L83.9437 11.764C83.5864 11.764 83.3144 11.8547 83.1277 12.036C82.9464 12.2173 82.8558 12.532 82.8558 12.98L82.8558 15.3L81.9437 15.3L81.9437 10.892L82.8558 10.892L82.8558 11.532ZM86.7882 13.076C86.7882 12.6333 86.8789 12.2413 87.0602 11.9C87.2469 11.5587 87.4975 11.2947 87.8122 11.108C88.1322 10.916 88.4869 10.82 88.8762 10.82C89.1642 10.82 89.4469 10.884 89.7242 11.012C90.0069 11.1347 90.2309 11.3 90.3962 11.508L90.3962 9.38L91.3162 9.38L91.3162 15.3L90.3962 15.3L90.3962 14.636C90.2469 14.8493 90.0388 15.0253 89.7722 15.164C89.5108 15.3027 89.2095 15.372 88.8682 15.372C88.4842 15.372 88.1322 15.276 87.8122 15.084C87.4975 14.8867 87.2469 14.6147 87.0602 14.268C86.8789 13.916 86.7882 13.5187 86.7882 13.076ZM90.3962 13.092C90.3962 12.788 90.3322 12.524 90.2042 12.3C90.0815 12.076 89.9189 11.9053 89.7162 11.788C89.5135 11.6707 89.2949 11.612 89.0602 11.612C88.8255 11.612 88.6069 11.6707 88.4042 11.788C88.2015 11.9 88.0362 12.068 87.9082 12.292C87.7855 12.5107 87.7242 12.772 87.7242 13.076C87.7242 13.38 87.7855 13.6467 87.9082 13.876C88.0362 14.1053 88.2015 14.2813 88.4042 14.404C88.6122 14.5213 88.8309 14.58 89.0602 14.58C89.2949 14.58 89.5135 14.5213 89.7162 14.404C89.9189 14.2867 90.0815 14.116 90.2042 13.892C90.3322 13.6627 90.3962 13.396 90.3962 13.092ZM92.2101 13.076C92.2101 12.6333 92.3007 12.2413 92.4821 11.9C92.6687 11.5587 92.9194 11.2947 93.2341 11.108C93.5541 10.916 93.9061 10.82 94.2901 10.82C94.6367 10.82 94.9381 10.8893 95.1941 11.028C95.4554 11.1613 95.6634 11.3293 95.8181 11.532L95.8181 10.892L96.7381 10.892L96.7381 15.3L95.8181 15.3L95.8181 14.644C95.6634 14.852 95.4527 15.0253 95.1861 15.164C94.9194 15.3027 94.6154 15.372 94.2741 15.372C93.8954 15.372 93.5487 15.276 93.2341 15.084C92.9194 14.8867 92.6687 14.6147 92.4821 14.268C92.3007 13.916 92.2101 13.5187 92.2101 13.076ZM95.8181 13.092C95.8181 12.788 95.7541 12.524 95.6261 12.3C95.5034 12.076 95.3407 11.9053 95.1381 11.788C94.9354 11.6707 94.7167 11.612 94.4821 11.612C94.2474 11.612 94.0287 11.6707 93.8261 11.788C93.6234 11.9 93.4581 12.068 93.3301 12.292C93.2074 12.5107 93.1461 12.772 93.1461 13.076C93.1461 13.38 93.2074 13.6467 93.3301 13.876C93.4581 14.1053 93.6234 14.2813 93.8261 14.404C94.0341 14.5213 94.2527 14.58 94.4821 14.58C94.7167 14.58 94.9354 14.5213 95.1381 14.404C95.3407 14.2867 95.5034 14.116 95.6261 13.892C95.7541 13.6627 95.8181 13.396 95.8181 13.092ZM100.16 10.82C100.507 10.82 100.816 10.892 101.088 11.036C101.365 11.18 101.581 11.3933 101.736 11.676C101.891 11.9587 101.968 12.3 101.968 12.7L101.968 15.3L101.064 15.3L101.064 12.836C101.064 12.4413 100.965 12.14 100.768 11.932C100.571 11.7187 100.301 11.612 99.9599 11.612C99.6186 11.612 99.3466 11.7187 99.1439 11.932C98.9466 12.14 98.8479 12.4413 98.8479 12.836L98.8479 15.3L97.9359 15.3L97.9359 10.892L98.8479 10.892L98.8479 11.396C98.9973 11.2147 99.1866 11.0733 99.4159 10.972C99.6506 10.8707 99.8986 10.82 100.16 10.82ZM104.731 15.372C104.385 15.372 104.073 15.3107 103.795 15.188C103.523 15.06 103.307 14.8893 103.147 14.676C102.987 14.4573 102.902 14.2147 102.891 13.948L103.835 13.948C103.851 14.1347 103.939 14.292 104.099 14.42C104.265 14.5427 104.47 14.604 104.715 14.604C104.971 14.604 105.169 14.556 105.307 14.46C105.451 14.3587 105.523 14.2307 105.523 14.076C105.523 13.9107 105.443 13.788 105.283 13.708C105.129 13.628 104.881 13.54 104.539 13.444C104.209 13.3533 103.939 13.2653 103.731 13.18C103.523 13.0947 103.342 12.964 103.187 12.788C103.038 12.612 102.963 12.38 102.963 12.092C102.963 11.8573 103.033 11.644 103.171 11.452C103.31 11.2547 103.507 11.1 103.763 10.988C104.025 10.876 104.323 10.82 104.659 10.82C105.161 10.82 105.563 10.948 105.867 11.204C106.177 11.4547 106.342 11.7987 106.363 12.236L105.451 12.236C105.435 12.0387 105.355 11.8813 105.211 11.764C105.067 11.6467 104.873 11.588 104.627 11.588C104.387 11.588 104.203 11.6333 104.075 11.724C103.947 11.8147 103.883 11.9347 103.883 12.084C103.883 12.2013 103.926 12.3 104.011 12.38C104.097 12.46 104.201 12.524 104.323 12.572C104.446 12.6147 104.627 12.6707 104.867 12.74C105.187 12.8253 105.449 12.9133 105.651 13.004C105.859 13.0893 106.038 13.2173 106.187 13.388C106.337 13.5587 106.414 13.7853 106.419 14.068C106.419 14.3187 106.35 14.5427 106.211 14.74C106.073 14.9373 105.875 15.092 105.619 15.204C105.369 15.316 105.073 15.372 104.731 15.372Z" fill="rgb(0,0,0)" fill-rule="nonzero" />
		<path id="l’App Store" d="M38.835 18.65L38.835 29.75L37.125 29.75L37.125 18.65L38.835 18.65ZM40.8801 19.325L42.7401 19.325L41.1651 22.895L39.9651 22.895L40.8801 19.325ZM50.0579 27.62L45.6929 27.62L44.9429 29.75L43.1579 29.75L46.8929 19.31L48.8729 19.31L52.6079 29.75L50.8079 29.75L50.0579 27.62ZM49.5779 26.225L47.8829 21.38L46.1729 26.225L49.5779 26.225ZM55.4719 22.7C55.7619 22.32 56.1569 22 56.6569 21.74C57.1569 21.48 57.7219 21.35 58.3519 21.35C59.0719 21.35 59.7269 21.53 60.3169 21.89C60.9169 22.24 61.3869 22.735 61.7269 23.375C62.0669 24.015 62.2369 24.75 62.2369 25.58C62.2369 26.41 62.0669 27.155 61.7269 27.815C61.3869 28.465 60.9169 28.975 60.3169 29.345C59.7269 29.705 59.0719 29.885 58.3519 29.885C57.7219 29.885 57.1619 29.76 56.6719 29.51C56.1819 29.25 55.7819 28.93 55.4719 28.55L55.4719 33.68L53.7619 33.68L53.7619 21.485L55.4719 21.485L55.4719 22.7ZM60.4969 25.58C60.4969 25.01 60.3769 24.52 60.1369 24.11C59.9069 23.69 59.5969 23.375 59.2069 23.165C58.8269 22.945 58.4169 22.835 57.9769 22.835C57.5469 22.835 57.1369 22.945 56.7469 23.165C56.3669 23.385 56.0569 23.705 55.8169 24.125C55.5869 24.545 55.4719 25.04 55.4719 25.61C55.4719 26.18 55.5869 26.68 55.8169 27.11C56.0569 27.53 56.3669 27.85 56.7469 28.07C57.1369 28.29 57.5469 28.4 57.9769 28.4C58.4169 28.4 58.8269 28.29 59.2069 28.07C59.5969 27.84 59.9069 27.51 60.1369 27.08C60.3769 26.65 60.4969 26.15 60.4969 25.58ZM65.1679 22.7C65.4579 22.32 65.8529 22 66.3529 21.74C66.8529 21.48 67.4179 21.35 68.0479 21.35C68.7679 21.35 69.4229 21.53 70.0129 21.89C70.6129 22.24 71.0829 22.735 71.4229 23.375C71.7629 24.015 71.9329 24.75 71.9329 25.58C71.9329 26.41 71.7629 27.155 71.4229 27.815C71.0829 28.465 70.6129 28.975 70.0129 29.345C69.4229 29.705 68.7679 29.885 68.0479 29.885C67.4179 29.885 66.8579 29.76 66.3679 29.51C65.8779 29.25 65.4779 28.93 65.1679 28.55L65.1679 33.68L63.4579 33.68L63.4579 21.485L65.1679 21.485L65.1679 22.7ZM70.1929 25.58C70.1929 25.01 70.0729 24.52 69.8329 24.11C69.6029 23.69 69.2929 23.375 68.9029 23.165C68.5229 22.945 68.1129 22.835 67.6729 22.835C67.2429 22.835 66.8329 22.945 66.4429 23.165C66.0629 23.385 65.7529 23.705 65.5129 24.125C65.2829 24.545 65.1679 25.04 65.1679 25.61C65.1679 26.18 65.2829 26.68 65.5129 27.11C65.7529 27.53 66.0629 27.85 66.4429 28.07C66.8329 28.29 67.2429 28.4 67.6729 28.4C68.1129 28.4 68.5229 28.29 68.9029 28.07C69.2929 27.84 69.6029 27.51 69.8329 27.08C70.0729 26.65 70.1929 26.15 70.1929 25.58ZM80.0154 29.855C79.3154 29.855 78.6854 29.735 78.1254 29.495C77.5654 29.245 77.1254 28.895 76.8054 28.445C76.4854 27.995 76.3254 27.47 76.3254 26.87L78.1554 26.87C78.1954 27.32 78.3704 27.69 78.6804 27.98C79.0004 28.27 79.4454 28.415 80.0154 28.415C80.6054 28.415 81.0654 28.275 81.3954 27.995C81.7254 27.705 81.8904 27.335 81.8904 26.885C81.8904 26.535 81.7854 26.25 81.5754 26.03C81.3754 25.81 81.1204 25.64 80.8104 25.52C80.5104 25.4 80.0904 25.27 79.5504 25.13C78.8704 24.95 78.3154 24.77 77.8854 24.59C77.4654 24.4 77.1054 24.11 76.8054 23.72C76.5054 23.33 76.3554 22.81 76.3554 22.16C76.3554 21.56 76.5054 21.035 76.8054 20.585C77.1054 20.135 77.5254 19.79 78.0654 19.55C78.6054 19.31 79.2304 19.19 79.9404 19.19C80.9504 19.19 81.7754 19.445 82.4154 19.955C83.0654 20.455 83.4254 21.145 83.4954 22.025L81.6054 22.025C81.5754 21.645 81.3954 21.32 81.0654 21.05C80.7354 20.78 80.3004 20.645 79.7604 20.645C79.2704 20.645 78.8704 20.77 78.5604 21.02C78.2504 21.27 78.0954 21.63 78.0954 22.1C78.0954 22.42 78.1904 22.685 78.3804 22.895C78.5804 23.095 78.8304 23.255 79.1304 23.375C79.4304 23.495 79.8404 23.625 80.3604 23.765C81.0504 23.955 81.6104 24.145 82.0404 24.335C82.4804 24.525 82.8504 24.82 83.1504 25.22C83.4604 25.61 83.6154 26.135 83.6154 26.795C83.6154 27.325 83.4704 27.825 83.1804 28.295C82.9004 28.765 82.4854 29.145 81.9354 29.435C81.3954 29.715 80.7554 29.855 80.0154 29.855ZM87.1581 22.88L87.1581 27.455C87.1581 27.765 87.2281 27.99 87.3681 28.13C87.5181 28.26 87.7681 28.325 88.1181 28.325L89.1681 28.325L89.1681 29.75L87.8181 29.75C87.0481 29.75 86.4581 29.57 86.0481 29.21C85.6381 28.85 85.4331 28.265 85.4331 27.455L85.4331 22.88L84.4581 22.88L84.4581 21.485L85.4331 21.485L85.4331 19.43L87.1581 19.43L87.1581 21.485L89.1681 21.485L89.1681 22.88L87.1581 22.88ZM93.8592 29.885C93.0792 29.885 92.3742 29.71 91.7442 29.36C91.1142 29 90.6192 28.5 90.2592 27.86C89.8992 27.21 89.7192 26.46 89.7192 25.61C89.7192 24.77 89.9042 24.025 90.2742 23.375C90.6442 22.725 91.1492 22.225 91.7892 21.875C92.4292 21.525 93.1442 21.35 93.9342 21.35C94.7242 21.35 95.4392 21.525 96.0792 21.875C96.7192 22.225 97.2242 22.725 97.5942 23.375C97.9642 24.025 98.1492 24.77 98.1492 25.61C98.1492 26.45 97.9592 27.195 97.5792 27.845C97.1992 28.495 96.6792 29 96.0192 29.36C95.3692 29.71 94.6492 29.885 93.8592 29.885ZM93.8592 28.4C94.2992 28.4 94.7092 28.295 95.0892 28.085C95.4792 27.875 95.7942 27.56 96.0342 27.14C96.2742 26.72 96.3942 26.21 96.3942 25.61C96.3942 25.01 96.2792 24.505 96.0492 24.095C95.8192 23.675 95.5142 23.36 95.1342 23.15C94.7542 22.94 94.3442 22.835 93.9042 22.835C93.4642 22.835 93.0542 22.94 92.6742 23.15C92.3042 23.36 92.0092 23.675 91.7892 24.095C91.5692 24.505 91.4592 25.01 91.4592 25.61C91.4592 26.5 91.6842 27.19 92.1342 27.68C92.5942 28.16 93.1692 28.4 93.8592 28.4ZM101.08 22.685C101.33 22.265 101.66 21.94 102.07 21.71C102.49 21.47 102.985 21.35 103.555 21.35L103.555 23.12L103.12 23.12C102.45 23.12 101.94 23.29 101.59 23.63C101.25 23.97 101.08 24.56 101.08 25.4L101.08 29.75L99.3696 29.75L99.3696 21.485L101.08 21.485L101.08 22.685ZM112.231 25.415C112.231 25.725 112.211 26.005 112.171 26.255L105.856 26.255C105.906 26.915 106.151 27.445 106.591 27.845C107.031 28.245 107.571 28.445 108.211 28.445C109.131 28.445 109.781 28.06 110.161 27.29L112.006 27.29C111.756 28.05 111.301 28.675 110.641 29.165C109.991 29.645 109.181 29.885 108.211 29.885C107.421 29.885 106.711 29.71 106.081 29.36C105.461 29 104.971 28.5 104.611 27.86C104.261 27.21 104.086 26.46 104.086 25.61C104.086 24.76 104.256 24.015 104.596 23.375C104.946 22.725 105.431 22.225 106.051 21.875C106.681 21.525 107.401 21.35 108.211 21.35C108.991 21.35 109.686 21.52 110.296 21.86C110.906 22.2 111.381 22.68 111.721 23.3C112.061 23.91 112.231 24.615 112.231 25.415ZM110.446 24.875C110.436 24.245 110.211 23.74 109.771 23.36C109.331 22.98 108.786 22.79 108.136 22.79C107.546 22.79 107.041 22.98 106.621 23.36C106.201 23.73 105.951 24.235 105.871 24.875L110.446 24.875Z" fill="rgb(0,0,0)" fill-rule="nonzero" />
	</g>
</svg>
