<svg width="30" height="20" viewBox="0 0 30 20" fill="none" xmlns="http://www.w3.org/2000/svg">
<path d="M0.0046871 6.49973C0.0390063 6.16363 -0.0755224 5.74231 0.107644 5.49143C1.12165 3.85843 2.13566 2.22543 3.28147 0.707424C4.06095 -0.308824 4.86927 -0.201782 5.53215 0.84971C6.48816 2.42479 7.42713 4.02963 8.33634 5.61744C7.03828 6.02056 6.34086 5.58173 4.6113 3.01038C4.50881 3.46556 4.36814 3.7803 4.33382 4.1164C4.0531 9.09429 7.55332 15.9602 14.5133 17.0595C17.4061 17.53 20.312 17.7707 23.2015 17.2114C25.159 16.8301 27.0231 16.1977 28.6028 14.8886C28.8284 14.7015 29.1391 14.6422 29.5008 14.4936C29.8147 15.7405 29.1759 16.4421 28.3671 16.8881C27.2731 17.4871 26.0898 18.035 24.8726 18.3659C20.1615 19.6214 15.4772 19.3111 10.9516 17.5501C6.42594 15.7891 3.05659 10.1444 3.31186 5.07288C3.35073 4.38364 3.43641 3.68166 3.48824 2.76267C2.01088 3.89321 1.73702 5.75233 0.349195 6.65745C0.289657 6.62336 0.140809 6.53814 0.0046871 6.49973Z" fill="white"/>
</svg>
