<svg width="105" height="32" viewBox="0 0 105 32" fill="none" xmlns="http://www.w3.org/2000/svg">
<g clip-path="url(#clip0_40002097_22140)">
<g clip-path="url(#clip1_40002097_22140)">
<g clip-path="url(#clip2_40002097_22140)">
<path d="M100.845 31.0273H3.87866C1.70661 31.0273 0 29.3207 0 27.1487V3.87671C0 1.70466 1.70661 -0.00195312 3.87866 -0.00195312H100.845C103.017 -0.00195312 104.724 1.70466 104.724 3.87671V27.1487C104.724 29.3207 103.017 31.0273 100.845 31.0273Z" fill="black"/>
<path d="M100.845 0.618635C102.629 0.618635 104.103 2.09252 104.103 3.87671V27.1487C104.103 28.9328 102.629 30.4067 100.845 30.4067H3.87866C2.09448 30.4067 0.620588 28.9328 0.620588 27.1487V3.87671C0.620588 2.09252 2.09448 0.618635 3.87866 0.618635H100.845ZM100.845 -0.00195312H3.87866C1.70661 -0.00195312 0 1.78223 0 3.87671V27.1487C0 29.3207 1.70661 31.0273 3.87866 31.0273H100.845C103.017 31.0273 104.724 29.3207 104.724 27.1487V3.87671C104.724 1.78223 103.017 -0.00195312 100.845 -0.00195312Z" fill="#A6A6A6"/>
<path d="M36.7677 7.91003C36.7677 8.53061 36.6125 9.0736 36.2247 9.46146C35.7592 9.92691 35.2162 10.1596 34.5181 10.1596C33.8199 10.1596 33.2769 9.92691 32.8115 9.46146C32.346 8.99606 32.1133 8.45302 32.1133 7.75484C32.1133 7.05672 32.346 6.51368 32.8115 6.04823C33.2769 5.58282 33.8199 5.3501 34.5181 5.3501C34.8284 5.3501 35.1387 5.42767 35.449 5.58281C35.7592 5.73797 35.992 5.8931 36.1471 6.12582L35.7592 6.51368C35.449 6.12582 35.0611 5.97069 34.5181 5.97069C34.0526 5.97069 33.5872 6.12582 33.2769 6.51368C32.8891 6.824 32.7339 7.28945 32.7339 7.83244C32.7339 8.37543 32.8891 8.84088 33.2769 9.1512C33.6648 9.46146 34.0526 9.69418 34.5181 9.69418C35.0611 9.69418 35.449 9.53905 35.8368 9.1512C36.0696 8.91847 36.2247 8.60815 36.2247 8.22029H34.5181V7.59971H36.7677V7.91003ZM40.3361 5.97069H38.2416V7.44458H40.1809V7.98757H38.2416V9.46146H40.3361V10.082H37.621V5.42767H40.3361V5.97069ZM42.896 10.082H42.2754V5.97069H40.9567V5.42767H44.2147V5.97069H42.896V10.082ZM46.4644 10.082V5.42767H47.085V10.082H46.4644ZM49.7224 10.082H49.1018V5.97069H47.7831V5.42767H50.9636V5.97069H49.6449V10.082H49.7224ZM57.0916 9.46146C56.6266 9.92691 56.0834 10.1596 55.3853 10.1596C54.6871 10.1596 54.1441 9.92691 53.6787 9.46146C53.2132 8.99606 52.9805 8.45302 52.9805 7.75484C52.9805 7.05672 53.2132 6.51368 53.6787 6.04823C54.1441 5.58282 54.6871 5.3501 55.3853 5.3501C56.0834 5.3501 56.6266 5.58282 57.0916 6.04823C57.5572 6.51368 57.7903 7.05672 57.7903 7.75484C57.7903 8.45302 57.5572 8.99606 57.0916 9.46146ZM54.1441 9.0736C54.4544 9.38392 54.9199 9.61665 55.3853 9.61665C55.8507 9.61665 56.3162 9.46146 56.6266 9.0736C56.937 8.76334 57.1695 8.29789 57.1695 7.75484C57.1695 7.21186 57.0143 6.7464 56.6266 6.43614C56.3162 6.12582 55.8507 5.8931 55.3853 5.8931C54.9199 5.8931 54.4544 6.04823 54.1441 6.43614C53.8338 6.7464 53.6011 7.21186 53.6011 7.75484C53.6011 8.29789 53.7562 8.76334 54.1441 9.0736ZM58.6435 10.082V5.42767H59.3416L61.591 9.0736V5.42767H62.2117V10.082H61.591L59.1864 6.28095V10.082H58.6435Z" fill="white" stroke="white" stroke-width="0.155147" stroke-miterlimit="10"/>
<path d="M52.8286 16.9101C50.9668 16.9101 49.4929 18.3064 49.4929 20.2458C49.4929 22.1075 50.9668 23.5814 52.8286 23.5814C54.6903 23.5814 56.1642 22.1851 56.1642 20.2458C56.1642 18.2289 54.6903 16.9101 52.8286 16.9101ZM52.8286 22.1851C51.8201 22.1851 50.9668 21.3318 50.9668 20.1682C50.9668 19.0046 51.8201 18.1513 52.8286 18.1513C53.837 18.1513 54.6903 18.927 54.6903 20.1682C54.6903 21.3318 53.837 22.1851 52.8286 22.1851ZM45.6142 16.9101C43.7525 16.9101 42.2786 18.3064 42.2786 20.2458C42.2786 22.1075 43.7525 23.5814 45.6142 23.5814C47.476 23.5814 48.9499 22.1851 48.9499 20.2458C48.9499 18.2289 47.476 16.9101 45.6142 16.9101ZM45.6142 22.1851C44.6058 22.1851 43.7525 21.3318 43.7525 20.1682C43.7525 19.0046 44.6058 18.1513 45.6142 18.1513C46.6227 18.1513 47.476 18.927 47.476 20.1682C47.476 21.3318 46.6227 22.1851 45.6142 22.1851ZM37.0036 17.9186V19.3149H40.3393C40.2617 20.0906 39.9514 20.7112 39.5636 21.0991C39.0981 21.5645 38.3224 22.1075 37.0036 22.1075C34.9092 22.1075 33.3577 20.4785 33.3577 18.384C33.3577 16.2895 34.9867 14.6605 37.0036 14.6605C38.0897 14.6605 38.943 15.1259 39.5636 15.669L40.572 14.6605C39.7187 13.8847 38.6327 13.2642 37.0812 13.2642C34.2886 13.2642 31.8838 15.5914 31.8838 18.384C31.8838 21.1767 34.2886 23.5038 37.0812 23.5038C38.6327 23.5038 39.7187 23.0384 40.6496 22.03C41.5804 21.0991 41.8908 19.7803 41.8908 18.7719C41.8908 18.4616 41.8908 18.1513 41.8132 17.9186H37.0036ZM72.2219 19.0046C71.9115 18.2289 71.1356 16.9101 69.4291 16.9101C67.7226 16.9101 66.3265 18.2289 66.3265 20.2458C66.3265 22.1075 67.7226 23.5814 69.5843 23.5814C71.0583 23.5814 71.9894 22.6505 72.2992 22.1075L71.2135 21.3318C70.8258 21.8748 70.3602 22.2627 69.5843 22.2627C68.8089 22.2627 68.3433 21.9524 67.9551 21.2542L72.3771 19.3924L72.2219 19.0046ZM67.7226 20.0906C67.7226 18.8495 68.731 18.1513 69.4291 18.1513C69.9725 18.1513 70.5154 18.4616 70.6706 18.8495L67.7226 20.0906ZM64.0765 23.2711H65.5505V13.5745H64.0765V23.2711ZM61.7493 17.6083C61.3616 17.2204 60.7408 16.8325 59.9655 16.8325C58.3363 16.8325 56.7849 18.3064 56.7849 20.1682C56.7849 22.03 58.2589 23.4263 59.9655 23.4263C60.7408 23.4263 61.3616 23.0384 61.672 22.6505H61.7493V23.116C61.7493 24.3572 61.0512 25.0553 59.9655 25.0553C59.1122 25.0553 58.4914 24.4347 58.3363 23.8917L57.0953 24.4347C57.483 25.288 58.4136 26.374 60.0428 26.374C61.7493 26.374 63.146 25.3656 63.146 22.9608V17.0652H61.7493V17.6083ZM60.0428 22.1851C59.0343 22.1851 58.1811 21.3318 58.1811 20.1682C58.1811 19.0046 59.0343 18.1513 60.0428 18.1513C61.0512 18.1513 61.8271 19.0046 61.8271 20.1682C61.8271 21.3318 61.0512 22.1851 60.0428 22.1851ZM78.9706 13.5745H75.4797V23.2711H76.9537V19.6252H78.9706C80.5998 19.6252 82.1511 18.4616 82.1511 16.5998C82.1511 14.738 80.5998 13.5745 78.9706 13.5745ZM79.0485 18.2289H76.9537V14.8932H79.0485C80.1342 14.8932 80.755 15.8241 80.755 16.5223C80.6771 17.3756 80.0569 18.2289 79.0485 18.2289ZM87.9692 16.8325C86.8835 16.8325 85.7972 17.298 85.4095 18.3064L86.7283 18.8495C87.0381 18.3064 87.5037 18.1513 88.0465 18.1513C88.8225 18.1513 89.5205 18.6167 89.5984 19.3924V19.47C89.3654 19.3149 88.7452 19.0822 88.1244 19.0822C86.7283 19.0822 85.3316 19.8579 85.3316 21.2542C85.3316 22.5729 86.4952 23.4263 87.7367 23.4263C88.7452 23.4263 89.2102 22.9608 89.5984 22.4954H89.6757V23.2711H91.0724V19.5476C90.9172 17.841 89.5984 16.8325 87.9692 16.8325ZM87.814 22.1851C87.3485 22.1851 86.6504 21.9524 86.6504 21.3318C86.6504 20.5561 87.5037 20.3233 88.2017 20.3233C88.8225 20.3233 89.1329 20.4785 89.5205 20.6336C89.3654 21.5645 88.59 22.1851 87.814 22.1851ZM95.9594 17.0652L94.3302 21.2542H94.2529L92.5459 17.0652H90.9945L93.5543 22.9608L92.0809 26.2189H93.5543L97.5107 17.0652H95.9594ZM82.927 23.2711H84.401V13.5745H82.927V23.2711Z" fill="white"/>
<path d="M8.07008 5.81348C7.83736 6.0462 7.75977 6.43406 7.75977 6.89951V24.0432C7.75977 24.5086 7.9149 24.8965 8.14762 25.1292L8.22522 25.2068L17.8443 15.5877V15.4325L8.07008 5.81348Z" fill="url(#paint0_linear_40002097_22140)"/>
<path d="M20.9481 18.844L17.7676 15.6635V15.4307L20.9481 12.2502L21.0256 12.3278L24.8267 14.4999C25.9127 15.1205 25.9127 16.1289 24.8267 16.7495L20.9481 18.844Z" fill="url(#paint1_linear_40002097_22140)"/>
<path d="M21.0231 18.7661L17.765 15.5081L8.06836 25.2047C8.45622 25.5926 8.9992 25.5926 9.69738 25.2823L21.0231 18.7661Z" fill="url(#paint2_linear_40002097_22140)"/>
<path d="M21.0231 12.2512L9.69738 5.8126C8.9992 5.42476 8.45622 5.50233 8.06836 5.8902L17.765 15.5093L21.0231 12.2512Z" fill="url(#paint3_linear_40002097_22140)"/>
<path opacity="0.2" d="M20.9455 18.6914L9.69738 25.0524C9.0768 25.4403 8.53381 25.3627 8.1459 25.0524L8.06836 25.13L8.1459 25.2075C8.53381 25.5179 9.0768 25.5954 9.69738 25.2075L20.9455 18.6914Z" fill="black"/>
<path opacity="0.12" d="M8.07008 25.0496C7.83736 24.8168 7.75977 24.429 7.75977 23.9635V24.0411C7.75977 24.5065 7.9149 24.8944 8.14762 25.1271V25.0496H8.07008ZM24.8259 16.5165L20.9472 18.6886L21.0248 18.7661L24.8259 16.5941C25.3689 16.2838 25.6016 15.8959 25.6016 15.5081C25.6016 15.8959 25.2913 16.2062 24.8259 16.5165Z" fill="black"/>
<path opacity="0.25" d="M9.69911 5.89156L24.8259 14.5022C25.2913 14.8124 25.6016 15.1228 25.6016 15.5106C25.6016 15.1228 25.3689 14.7349 24.8259 14.4246L9.69911 5.81397C8.61307 5.19338 7.75977 5.65884 7.75977 6.9V6.97754C7.75977 5.81397 8.61307 5.27095 9.69911 5.89156Z" fill="white"/>
</g>
</g>
</g>
<defs>
<linearGradient id="paint0_linear_40002097_22140" x1="16.9134" y1="6.75211" x2="3.89429" y2="19.7704" gradientUnits="userSpaceOnUse">
<stop stop-color="#00A0FF"/>
<stop offset="0.007" stop-color="#00A1FF"/>
<stop offset="0.26" stop-color="#00BEFF"/>
<stop offset="0.512" stop-color="#00D2FF"/>
<stop offset="0.76" stop-color="#00DFFF"/>
<stop offset="1" stop-color="#00E3FF"/>
</linearGradient>
<linearGradient id="paint1_linear_40002097_22140" x1="26.2494" y1="15.5091" x2="7.47902" y2="15.5091" gradientUnits="userSpaceOnUse">
<stop stop-color="#FFE000"/>
<stop offset="0.409" stop-color="#FFBD00"/>
<stop offset="0.775" stop-color="#FFA500"/>
<stop offset="1" stop-color="#FF9C00"/>
</linearGradient>
<linearGradient id="paint2_linear_40002097_22140" x1="19.2598" y1="17.2891" x2="1.60572" y2="34.9432" gradientUnits="userSpaceOnUse">
<stop stop-color="#FF3A44"/>
<stop offset="1" stop-color="#C31162"/>
</linearGradient>
<linearGradient id="paint3_linear_40002097_22140" x1="5.66126" y1="0.13116" x2="13.545" y2="8.01491" gradientUnits="userSpaceOnUse">
<stop stop-color="#32A071"/>
<stop offset="0.069" stop-color="#2DA771"/>
<stop offset="0.476" stop-color="#15CF74"/>
<stop offset="0.801" stop-color="#06E775"/>
<stop offset="1" stop-color="#00F076"/>
</linearGradient>
<clipPath id="clip0_40002097_22140">
<rect width="104.963" height="31.0342" fill="white"/>
</clipPath>
<clipPath id="clip1_40002097_22140">
<rect width="104.963" height="31.0342" fill="white"/>
</clipPath>
<clipPath id="clip2_40002097_22140">
<rect width="104.963" height="31.0376" fill="white" transform="translate(0 -0.00195312)"/>
</clipPath>
</defs>
</svg>
