<svg width="105" height="32" viewBox="0 0 105 32" fill="none" xmlns="http://www.w3.org/2000/svg">
<g clip-path="url(#clip0_40002097_22155)">
<g clip-path="url(#clip1_40002097_22155)">
<g clip-path="url(#clip2_40002097_22155)">
<path d="M104.085 27.3732C104.085 27.7639 104.008 28.1507 103.858 28.5116C103.708 28.8724 103.489 29.2003 103.212 29.4763C102.936 29.7524 102.608 29.9713 102.247 30.1205C101.886 30.2697 101.499 30.3463 101.108 30.3459H3.69919C2.90969 30.3468 2.15218 30.0341 1.59326 29.4766C1.03434 28.9191 0.719777 28.1626 0.71875 27.3732V3.66722C0.719777 2.87757 1.03422 2.1206 1.59302 1.56252C2.15183 1.00445 2.90933 0.690883 3.69919 0.690674H101.108C101.498 0.690674 101.885 0.76767 102.246 0.917265C102.608 1.06686 102.936 1.28613 103.212 1.56253C103.489 1.83894 103.708 2.16708 103.857 2.5282C104.007 2.88933 104.084 3.27637 104.084 3.66722L104.085 27.3732Z" fill="white"/>
<path d="M101.107 31.0361H3.69776C2.72519 31.0359 1.79241 30.65 1.10411 29.9631C0.415817 29.2761 0.0282178 28.3442 0.0263672 27.3719V3.66663C0.027806 2.69383 0.415149 1.76132 1.10342 1.07366C1.7917 0.386005 2.72471 -0.000643765 3.69776 -0.00146484H101.106C102.079 -0.000234063 103.011 0.386547 103.7 1.07412C104.388 1.76168 104.775 2.69396 104.777 3.66663V27.3719C104.779 29.393 103.129 31.0361 101.107 31.0361Z" fill="#A6A6A6"/>
<path d="M104.085 27.3732C104.085 27.7639 104.008 28.1507 103.858 28.5116C103.708 28.8724 103.489 29.2003 103.212 29.4763C102.936 29.7524 102.608 29.9713 102.247 30.1205C101.886 30.2697 101.499 30.3463 101.108 30.3459H3.69919C2.90969 30.3468 2.15218 30.0341 1.59326 29.4766C1.03434 28.9191 0.719777 28.1626 0.71875 27.3732V3.66722C0.719777 2.87757 1.03422 2.1206 1.59302 1.56252C2.15183 1.00445 2.90933 0.690883 3.69919 0.690674H101.108C101.498 0.690674 101.885 0.76767 102.246 0.917265C102.608 1.06686 102.936 1.28613 103.212 1.56253C103.489 1.83894 103.708 2.16708 103.857 2.5282C104.007 2.88933 104.084 3.27637 104.084 3.66722L104.085 27.3732Z" fill="black"/>
<path d="M23.418 15.3562C23.3955 12.8547 25.4668 11.6377 25.5616 11.581C24.3885 9.87114 22.5702 9.63756 21.9313 9.61889C20.4042 9.45822 18.9229 10.5325 18.145 10.5325C17.3516 10.5325 16.1536 9.63446 14.8626 9.66081C13.2012 9.68643 11.6469 10.6481 10.7944 12.1414C9.03518 15.1862 10.3472 19.6608 12.0327 22.1219C12.8758 23.3281 13.8611 24.6732 15.1506 24.6258C16.4121 24.5746 16.8834 23.8225 18.4059 23.8225C19.9143 23.8225 20.3568 24.6258 21.672 24.5956C23.026 24.5746 23.8784 23.3848 24.692 22.1685C25.6664 20.7877 26.0576 19.4264 26.0732 19.3565C26.0421 19.3457 23.4444 18.3538 23.418 15.3562ZM20.9337 7.99985C21.6122 7.15151 22.0765 5.99737 21.9476 4.82617C20.9655 4.86964 19.7373 5.5053 19.03 6.335C18.4043 7.06613 17.8453 8.26452 17.9897 9.39152C19.0929 9.4738 20.2256 8.83499 20.9337 7.99985Z" fill="white"/>
<path d="M101.108 -0.00146484H48.9326L69.3689 31.0361H101.108C102.081 31.0353 103.013 30.6489 103.702 29.9615C104.39 29.2742 104.777 28.3421 104.779 27.3696V3.66663C104.778 2.69389 104.39 1.7615 103.702 1.07389C103.014 0.386276 102.081 -0.000438832 101.108 -0.00146484Z" fill="url(#paint0_linear_40002097_22155)"/>
<path d="M41.696 24.4563H39.9329L38.9671 21.4224H35.6101L34.6902 24.4563H32.9736L36.3003 14.1273H38.3546L41.696 24.4563ZM38.676 20.1494L37.8026 17.4523C37.7102 17.1768 37.5363 16.5279 37.2816 15.5065H37.2506C37.1481 15.9458 36.9843 16.5947 36.7599 17.4523L35.9013 20.1494H38.676ZM50.2344 20.6407C50.2344 21.9075 49.8905 22.9087 49.2018 23.6437C48.5854 24.298 47.8191 24.6248 46.9054 24.6248C45.9186 24.6248 45.209 24.2731 44.7782 23.5684V27.4763H43.123V19.4563C43.123 18.6608 43.102 17.845 43.0616 17.0084H44.5173L44.6097 18.1889H44.6407C45.1927 17.2994 46.0304 16.8547 47.1546 16.8547C48.0334 16.8547 48.7671 17.2016 49.354 17.8963C49.9402 18.5925 50.2344 19.5068 50.2344 20.6407ZM48.5482 20.7013C48.5482 19.9764 48.3851 19.3787 48.0575 18.9076C47.6996 18.4179 47.219 18.1726 46.6166 18.1726C46.2082 18.1726 45.8371 18.3092 45.5056 18.5785C45.1733 18.8502 44.9559 19.2049 44.8542 19.6442C44.8088 19.8085 44.783 19.9775 44.7774 20.1479V21.3905C44.7774 21.9315 44.9435 22.3886 45.2758 22.7627C45.6081 23.1353 46.0397 23.3224 46.5707 23.3224C47.1942 23.3224 47.6794 23.081 48.0265 22.6021C48.3742 22.1217 48.5482 21.4883 48.5482 20.7013ZM58.8033 20.6407C58.8033 21.9075 58.459 22.9087 57.7706 23.6437C57.1532 24.298 56.3878 24.6248 55.4733 24.6248C54.4865 24.6248 53.7769 24.2731 53.346 23.5684V27.4763H51.6909V19.4563C51.6909 18.6608 51.6699 17.845 51.6295 17.0084H53.0852L53.1776 18.1889H53.2086C53.7598 17.2994 54.5975 16.8547 55.7225 16.8547C56.6007 16.8547 57.3343 17.2016 57.9229 17.8963C58.5081 18.5925 58.8033 19.5068 58.8033 20.6407ZM57.1159 20.7013C57.1159 19.9764 56.9523 19.3787 56.6244 18.9076C56.2667 18.4179 55.7877 18.1726 55.1852 18.1726C54.7768 18.1726 54.4057 18.3092 54.0727 18.5785C53.7404 18.8502 53.5238 19.2049 53.4221 19.6442C53.3716 19.8491 53.3445 20.016 53.3445 20.1479V21.3905C53.3445 21.9315 53.5114 22.3886 53.8421 22.7627C54.1744 23.1345 54.6061 23.3224 55.1386 23.3224C55.7628 23.3224 56.2481 23.081 56.5945 22.6021C56.9421 22.1217 57.1159 21.4883 57.1159 20.7013ZM68.3832 21.5589C68.3832 22.4383 68.0762 23.1531 67.465 23.705C66.7923 24.3073 65.8539 24.6092 64.6507 24.6092C63.539 24.6092 62.6474 24.395 61.9753 23.9658L62.3579 22.5866C63.0836 23.0166 63.881 23.2308 64.7489 23.2308C65.3736 23.2308 65.8584 23.0895 66.2049 22.8093C66.5519 22.5284 66.7274 22.1527 66.7274 21.6839C66.7274 21.264 66.5824 20.9124 66.2974 20.626C66.0108 20.3404 65.5373 20.0741 64.872 19.8297C63.0627 19.1552 62.1576 18.1687 62.1576 16.871C62.1576 16.0234 62.4775 15.3295 63.1158 14.787C63.754 14.2452 64.6 13.9744 65.653 13.9744C66.5931 13.9744 67.3764 14.1381 67.9983 14.4649L67.5829 15.8139C66.9977 15.4972 66.3369 15.3388 65.5977 15.3388C65.0142 15.3388 64.5559 15.4825 64.2281 15.7681C63.9527 16.0234 63.8127 16.3347 63.8127 16.7041C63.8127 17.1116 63.9719 17.45 64.289 17.7154C64.5638 17.9599 65.065 18.2261 65.7901 18.5118C66.68 18.8703 67.3335 19.2879 67.7522 19.7676C68.1738 20.2472 68.3832 20.8456 68.3832 21.5589ZM73.87 18.2502H72.0456V21.8663C72.0456 22.786 72.3667 23.2447 73.0111 23.2447C73.3068 23.2447 73.5523 23.2199 73.7464 23.1679L73.7921 24.4245C73.466 24.5464 73.0371 24.6077 72.5049 24.6077C71.8515 24.6077 71.3408 24.4082 70.9717 24.0093C70.6043 23.6103 70.4198 22.942 70.4198 22.0014V18.2471H69.3329V17.0053H70.4198V15.6415L72.0456 15.151V17.0053H73.87V18.2502ZM82.0854 20.671C82.0854 21.8159 81.7575 22.7558 81.104 23.4908C80.4201 24.2475 79.5098 24.6248 78.3756 24.6248C77.2813 24.6248 76.4106 24.2623 75.7616 23.5381C75.1127 22.8125 74.7882 21.8981 74.7882 20.7952C74.7882 19.6411 75.1239 18.6957 75.7921 17.9607C76.4619 17.2249 77.3643 16.857 78.4986 16.857C79.5917 16.857 80.4697 17.2203 81.1345 17.9452C81.7694 18.6484 82.0854 19.5564 82.0854 20.671ZM80.3693 20.7091C80.3693 20.0268 80.222 19.4416 79.9263 18.9518C79.5792 18.3604 79.0821 18.0647 78.4388 18.0647C77.7757 18.0647 77.2672 18.3604 76.9207 18.9518C76.6245 19.4416 76.4766 20.0369 76.4766 20.7401C76.4766 21.4231 76.6245 22.0099 76.9207 22.4981C77.2791 23.0895 77.7779 23.3852 78.4246 23.3852C79.0572 23.3852 79.5533 23.0833 79.9122 22.4833C80.2164 21.9819 80.3693 21.3928 80.3693 20.7091ZM87.4679 18.4636C87.2957 18.4326 87.1208 18.4173 86.9459 18.4179C86.3641 18.4179 85.9137 18.6367 85.5966 19.0776C85.3218 19.4656 85.1835 19.9562 85.1835 20.5484V24.4563H83.5284V19.3539C83.53 18.572 83.5137 17.7902 83.4804 17.0092H84.9222L84.9826 18.4341H85.0283C85.2038 17.9444 85.4786 17.5493 85.8562 17.2536C86.2015 16.9952 86.6208 16.8553 87.0525 16.8547C87.2055 16.8547 87.3437 16.8655 87.4662 16.885L87.4679 18.4636ZM94.8706 20.38C94.8746 20.6315 94.8542 20.8829 94.8097 21.1305H89.8442C89.8628 21.8663 90.1032 22.4298 90.5648 22.8179C90.983 23.164 91.5242 23.3379 92.189 23.3379C92.9243 23.3379 93.5947 23.2215 94.1979 22.9863L94.4575 24.1342C93.7521 24.4416 92.9203 24.5945 91.9598 24.5945C90.8047 24.5945 89.8978 24.2545 89.2381 23.5761C88.5796 22.897 88.2494 21.9843 88.2494 20.841C88.2494 19.7187 88.5564 18.7834 89.1704 18.0375C89.8132 17.2412 90.6817 16.843 91.7748 16.843C92.8487 16.843 93.6613 17.2412 94.2137 18.0375C94.6505 18.6685 94.8706 19.4509 94.8706 20.38ZM93.2922 19.9507C93.3035 19.4594 93.1951 19.0364 92.9705 18.6786C92.6839 18.2176 92.2431 17.9879 91.6523 17.9879C91.1111 17.9879 90.6704 18.2122 90.3346 18.6623C90.0592 19.0202 89.8956 19.4501 89.8448 19.9492L93.2922 19.9507Z" fill="white"/>
<path d="M35.1286 10.467C34.6683 10.467 34.27 10.4445 33.9385 10.4064V5.41267C34.4021 5.34107 34.8707 5.30578 35.3398 5.30712C37.238 5.30712 38.1122 6.24086 38.1122 7.76288C38.1122 9.51854 37.0796 10.467 35.1286 10.467ZM35.4066 5.94747C35.1504 5.94747 34.9322 5.96298 34.7513 6.00023V9.79641C34.8492 9.81193 35.037 9.81887 35.301 9.81887C36.5447 9.81887 37.2528 9.11104 37.2528 7.7854C37.2528 6.60332 36.6123 5.94747 35.4066 5.94747ZM40.8364 10.505C39.7666 10.505 39.0733 9.70634 39.0733 8.62206C39.0733 7.49201 39.7814 6.68633 40.897 6.68633C41.9513 6.68633 42.6601 7.44698 42.6601 8.5623C42.6601 9.70634 41.9295 10.505 40.8364 10.505ZM40.8675 7.2809C40.2798 7.2809 39.9033 7.83037 39.9033 8.59881C39.9033 9.3524 40.2875 9.90193 40.8597 9.90193C41.4319 9.90193 41.8162 9.31442 41.8162 8.58323C41.8162 7.83816 41.4396 7.2809 40.8675 7.2809ZM48.7607 6.76161L47.6156 10.422H46.8695L46.3952 8.83238C46.2772 8.44356 46.179 8.04905 46.1009 7.6503H46.0854C46.0256 8.04927 45.9123 8.44898 45.7919 8.83238L45.2873 10.422H44.5335L43.4559 6.76161H44.292L44.7066 8.50174C44.8044 8.91624 44.8867 9.30742 44.955 9.67688H44.9705C45.0303 9.36871 45.1281 8.98373 45.2718 8.50953L45.7919 6.7624H46.4549L46.9526 8.47229C47.0729 8.88672 47.1708 9.29343 47.2468 9.67762H47.2685C47.3214 9.30122 47.4044 8.90145 47.517 8.47229L47.9619 6.7624L48.7607 6.76161ZM52.9764 10.422H52.1627V8.32015C52.1627 7.67282 51.9143 7.34839 51.4244 7.34839C50.9423 7.34839 50.6108 7.76288 50.6108 8.24487V10.422H49.7971V7.80786C49.7971 7.48422 49.7894 7.13728 49.7669 6.76088H50.4827L50.5207 7.32587H50.5432C50.7622 6.93469 51.2063 6.68633 51.7039 6.68633C52.4725 6.68633 52.9771 7.2739 52.9771 8.23008L52.9764 10.422ZM55.22 10.422H54.4056V5.08203H55.22V10.422ZM58.1864 10.505C57.1176 10.505 56.4234 9.70634 56.4234 8.62206C56.4234 7.49201 57.1317 6.68633 58.2462 6.68633C59.3015 6.68633 60.0091 7.44698 60.0091 8.5623C60.0103 9.70634 59.2789 10.505 58.1864 10.505ZM58.2169 7.2809C57.6288 7.2809 57.2524 7.83037 57.2524 8.59881C57.2524 9.3524 57.6379 9.90193 58.2084 9.90193C58.7812 9.90193 59.1649 9.31442 59.1649 8.58323C59.1655 7.83816 58.7896 7.2809 58.2169 7.2809ZM63.2173 10.422L63.158 10.0005H63.1366C62.8883 10.3397 62.5254 10.505 62.0661 10.505C61.4098 10.505 60.9442 10.0456 60.9442 9.42774C60.9442 8.52426 61.7275 8.057 63.0835 8.057V7.98951C63.0835 7.50753 62.8285 7.26611 62.324 7.26611C61.9628 7.26611 61.6462 7.35691 61.3674 7.53777L61.2021 7.00303C61.5401 6.79191 61.9628 6.68633 62.4588 6.68633C63.4154 6.68633 63.8984 7.19083 63.8984 8.20062V9.54878C63.8984 9.91824 63.9142 10.2046 63.9509 10.4227L63.2173 10.422ZM63.1055 8.59881C62.2021 8.59881 61.7484 8.81765 61.7484 9.33688C61.7484 9.72107 61.982 9.90893 62.3065 9.90893C62.7207 9.90893 63.1055 9.59303 63.1055 9.1638V8.59881ZM67.8492 10.422L67.8108 9.83444H67.7883C67.5546 10.2784 67.1619 10.505 66.6134 10.505C65.7302 10.505 65.0767 9.72886 65.0767 8.63679C65.0767 7.49201 65.7545 6.68554 66.68 6.68554C67.1698 6.68554 67.5168 6.85088 67.7127 7.1831H67.7285V5.08203H68.5433V9.43547C68.5433 9.78941 68.5518 10.1208 68.5732 10.422H67.8492ZM67.7285 8.26812C67.7285 7.75588 67.3893 7.31893 66.8718 7.31893C66.2686 7.31893 65.8995 7.85368 65.8995 8.60654C65.8995 9.34467 66.2821 9.84996 66.8555 9.84996C67.3667 9.84996 67.7285 9.40522 67.7285 8.8782V8.26812ZM73.7069 10.505C72.6375 10.505 71.9445 9.70634 71.9445 8.62206C71.9445 7.49201 72.6521 6.68633 73.7672 6.68633C74.8225 6.68633 75.5302 7.44698 75.5302 8.5623C75.5313 9.70634 74.8005 10.505 73.7069 10.505ZM73.7368 7.2809C73.1499 7.2809 72.7735 7.83037 72.7735 8.59881C72.7735 9.3524 73.1578 9.90193 73.7294 9.90193C74.3022 9.90193 74.6854 9.31442 74.6854 8.58323C74.6871 7.83816 74.3107 7.2809 73.7368 7.2809ZM79.9059 10.422H79.0916V8.32015C79.0916 7.67282 78.8433 7.34839 78.3529 7.34839C77.871 7.34839 77.5403 7.76288 77.5403 8.24487V10.422H76.726V7.80786C76.726 7.48422 76.7181 7.13728 76.6955 6.76088H77.4116L77.4494 7.32587H77.472C77.6904 6.93469 78.1351 6.68554 78.6317 6.68554C79.4003 6.68554 79.9059 7.27311 79.9059 8.22935V10.422ZM85.3798 7.3717H84.4848V9.14908C84.4848 9.60155 84.6417 9.82744 84.9583 9.82744C85.1022 9.82744 85.2224 9.81193 85.3194 9.78941L85.342 10.4072C85.1845 10.4678 84.9729 10.498 84.7105 10.498C84.0694 10.498 83.6857 10.1441 83.6857 9.21736V7.3717H83.1519V6.76161H83.6857V6.09103L84.4848 5.84967V6.76088H85.3798V7.3717ZM89.6872 10.422H88.8746V8.33567C88.8746 7.6806 88.6269 7.34918 88.1359 7.34918C87.7144 7.34918 87.3216 7.63557 87.3216 8.21535V10.422H86.509V5.08203H87.3216V7.2809H87.338C87.5942 6.88192 87.9655 6.68554 88.439 6.68554C89.2138 6.68554 89.6872 7.28784 89.6872 8.24487V10.422ZM94.1002 8.7874H91.6584C91.6737 9.4805 92.133 9.87169 92.8119 9.87169C93.173 9.87169 93.5054 9.81114 93.7989 9.69861L93.9253 10.2636C93.5794 10.4142 93.1714 10.4895 92.6973 10.4895C91.5518 10.4895 90.874 9.7661 90.874 8.64457C90.874 7.52226 91.5681 6.6786 92.6053 6.6786C93.541 6.6786 94.1279 7.3717 94.1279 8.41873C94.1335 8.54226 94.1239 8.66602 94.1002 8.7874ZM93.3542 8.20762C93.3542 7.64257 93.0692 7.24359 92.5489 7.24359C92.0817 7.24359 91.712 7.6503 91.659 8.20762H93.3542Z" fill="white"/>
</g>
</g>
</g>
<defs>
<linearGradient id="paint0_linear_40002097_22155" x1="76.8552" y1="31.1185" x2="76.8552" y2="-80.8182" gradientUnits="userSpaceOnUse">
<stop stop-color="#1A1A1A" stop-opacity="0.1"/>
<stop offset="0.123" stop-color="#212121" stop-opacity="0.151"/>
<stop offset="0.308" stop-color="#353535" stop-opacity="0.227"/>
<stop offset="0.532" stop-color="#575757" stop-opacity="0.318"/>
<stop offset="0.783" stop-color="#858585" stop-opacity="0.421"/>
<stop offset="1" stop-color="#B3B3B3" stop-opacity="0.51"/>
</linearGradient>
<clipPath id="clip0_40002097_22155">
<rect width="104.963" height="31.0342" fill="white"/>
</clipPath>
<clipPath id="clip1_40002097_22155">
<rect width="104.963" height="31.0342" fill="white"/>
</clipPath>
<clipPath id="clip2_40002097_22155">
<rect width="104.963" height="31.0376" fill="white" transform="translate(0 -0.00170898)"/>
</clipPath>
</defs>
</svg>
