<svg width="41" height="41" viewBox="0 0 41 41" fill="none" xmlns="http://www.w3.org/2000/svg">
<rect x="0.5" y="0.5" width="40" height="40" rx="10" fill="white"/>
<rect x="0.5" y="0.5" width="40" height="40" rx="10" stroke="#EDEDED"/>
<rect x="2.75" y="2.75" width="35.5" height="35.5" rx="7.75" fill="white"/>
<rect x="2.75" y="2.75" width="35.5" height="35.5" rx="7.75" stroke="url(#paint0_linear_384_23252)" stroke-width="0.5"/>
<path d="M15.5007 21.3334C13.2007 21.3334 11.334 23.1917 11.334 25.5C11.334 27.8084 13.2007 29.6667 15.5007 29.6667C17.8007 29.6667 19.6673 27.8 19.6673 25.5C19.6673 23.2 17.809 21.3334 15.5007 21.3334ZM13.8006 23.8H15.5007C15.8173 23.8 16.0673 24.0584 16.0673 24.3667C16.0673 24.675 15.809 24.9334 15.5007 24.9334H13.8006C13.484 24.9334 13.234 24.675 13.234 24.3667C13.234 24.0584 13.484 23.8 13.8006 23.8ZM17.2007 27.2H13.7923C13.4757 27.2 13.2256 26.9417 13.2256 26.6334C13.2256 26.325 13.484 26.0667 13.7923 26.0667H17.2007C17.5173 26.0667 17.7673 26.325 17.7673 26.6334C17.7673 26.9417 17.5173 27.2 17.2007 27.2Z" fill="#292D32"/>
<path opacity="0.4" d="M24.666 13H16.3327C13.8327 13 12.166 14.25 12.166 17.1667V19.7833C12.166 20.3917 12.791 20.775 13.3494 20.5333C14.266 20.1333 15.3077 19.9833 16.3993 20.1583C18.5827 20.5167 20.366 22.2417 20.8077 24.4083C20.9327 25.0417 20.9494 25.6583 20.866 26.25C20.7994 26.7417 21.1993 27.175 21.691 27.175H24.666C27.166 27.175 28.8327 25.925 28.8327 23.0083V17.175C28.8327 14.25 27.166 13 24.666 13Z" fill="#292D32"/>
<path d="M20.501 20.3917C19.801 20.3917 19.0926 20.1751 18.551 19.7334L15.9426 17.6501C15.676 17.4334 15.626 17.0417 15.8426 16.7751C16.0593 16.5084 16.4509 16.4584 16.7176 16.6751L19.326 18.7584C19.9593 19.2667 21.0343 19.2667 21.6676 18.7584L24.276 16.6751C24.5426 16.4584 24.9426 16.5001 25.1509 16.7751C25.3676 17.0417 25.3259 17.4417 25.0509 17.6501L22.4426 19.7334C21.9093 20.1751 21.201 20.3917 20.501 20.3917Z" fill="#292D32"/>
<defs>
<linearGradient id="paint0_linear_384_23252" x1="20.5" y1="2.5" x2="20.5" y2="38.5" gradientUnits="userSpaceOnUse">
<stop stop-color="#EDEDED"/>
<stop offset="1" stop-color="#EDEDED" stop-opacity="0"/>
</linearGradient>
</defs>
</svg>
