<svg viewBox="0 0 16 16" xmlns="http://www.w3.org/2000/svg" xmlns:xlink="http://www.w3.org/1999/xlink" width="16.000000" height="16.000000" fill="none" customFrame="#000000">
	<path id="Shape" d="M2 0L14 0C15.1027 0 16 0.896667 16 2L16 14C16 15.1027 15.1027 16 14 16L11 16L11 10.5L12.5 10.5L13.5 8L11 8L11 6C11 5.49261 11.3785 5.49554 11.8684 5.49933C11.9115 5.49966 11.9554 5.5 12 5.5L13 5.5L13 3L11 3C9.34267 3 8 4.34267 8 6L8 8L6 8L6 10.5L8 10.5L8 16L2 16C0.896667 16 0 15.1027 0 14L0 2C0 0.896667 0.896667 0 2 0Z" fill="rgb(255,255,255)" fill-rule="evenodd" />
</svg>
