<svg viewBox="0 0 16 16" xmlns="http://www.w3.org/2000/svg" xmlns:xlink="http://www.w3.org/1999/xlink" width="16.000000" height="16.000000" fill="none" customFrame="#000000">
	<path id="Shape" d="M11 0L5 0C2.239 0 0 2.239 0 5L0 11C0 13.761 2.239 16 5 16L11 16C13.761 16 16 13.761 16 11L16 5C16 2.239 13.761 0 11 0ZM14.5 11C14.5 12.93 12.93 14.5 11 14.5L5 14.5C3.07 14.5 1.5 12.93 1.5 11L1.5 5C1.5 3.07 3.07 1.5 5 1.5L11 1.5C12.93 1.5 14.5 3.07 14.5 5L14.5 11ZM8 4C5.791 4 4 5.791 4 8C4 10.209 5.791 12 8 12C10.209 12 12 10.209 12 8C12 5.791 10.209 4 8 4ZM8 10.5C6.622 10.5 5.5 9.378 5.5 8C5.5 6.621 6.622 5.5 8 5.5C9.378 5.5 10.5 6.621 10.5 8C10.5 9.378 9.378 10.5 8 10.5ZM12.8329 3.69999C12.8329 3.99436 12.5943 4.23299 12.2999 4.23299C12.0056 4.23299 11.7669 3.99436 11.7669 3.69999C11.7669 3.40562 12.0056 3.16699 12.2999 3.16699C12.5943 3.16699 12.8329 3.40562 12.8329 3.69999Z" fill="rgb(255,255,255)" fill-rule="evenodd" />
</svg>
