<svg viewBox="0 0 16 16" xmlns="http://www.w3.org/2000/svg" xmlns:xlink="http://www.w3.org/1999/xlink" width="16.000000" height="16.000000" fill="none" customFrame="#000000">
	<path id="Shape" d="M0 1.92133C0 0.860667 0.860667 0 1.92133 0C2.98133 0 3.842 0.860667 3.84267 1.92133C3.84267 2.982 2.982 3.86067 1.92133 3.86067C0.860667 3.86067 0 2.982 0 1.92133ZM15.996 16L15.996 15.9993L16 15.9993L16 10.1313C16 7.26065 15.382 5.04932 12.026 5.04932C10.4127 5.04932 9.33001 5.93465 8.88801 6.77398L8.84135 6.77398L8.84135 5.31732L5.65934 5.31732L5.65934 15.9993L8.97268 15.9993L8.97268 10.71C8.97268 9.31732 9.23668 7.97065 10.9613 7.97065C12.6607 7.97065 12.686 9.55998 12.686 10.7993L12.686 16L15.996 16ZM0.263997 5.31803L3.58133 5.31803L3.58133 16L0.263997 16L0.263997 5.31803Z" fill="rgb(255,255,255)" fill-rule="evenodd" />
</svg>
