<svg width="40" height="44" viewBox="0 0 40 44" fill="none" xmlns="http://www.w3.org/2000/svg">
<rect width="40" height="44" rx="10" fill="#0189D5"/>
<rect x="2.25" y="2.25" width="35.5" height="39.5" rx="7.75" stroke="#1FD7F3" stroke-width="0.5"/>
<path opacity="0.4" d="M28.6191 18.45C27.5691 13.83 23.5391 11.75 19.9991 11.75C19.9991 11.75 19.9991 11.75 19.9891 11.75C16.4591 11.75 12.4191 13.82 11.3691 18.44C10.1991 23.6 13.3591 27.97 16.2191 30.72C17.2791 31.74 18.6391 32.25 19.9991 32.25C21.3591 32.25 22.7191 31.74 23.7691 30.72C26.6291 27.97 29.7891 23.61 28.6191 18.45Z" fill="#E6F3FB"/>
<path d="M19.9996 23.46C21.7393 23.46 23.1496 22.0497 23.1496 20.31C23.1496 18.5703 21.7393 17.16 19.9996 17.16C18.2599 17.16 16.8496 18.5703 16.8496 20.31C16.8496 22.0497 18.2599 23.46 19.9996 23.46Z" fill="#E6F3FB"/>
</svg>
