<svg viewBox="0 0 184 56" xmlns="http://www.w3.org/2000/svg" xmlns:xlink="http://www.w3.org/1999/xlink" width="184.000000" height="56.000000" fill="none">
	<rect id="Background" width="184.000000" height="56.000000" x="0.000000" y="0.000000" fill="rgb(255,255,255)" fill-opacity="0" />
	<g id="Yampsp.tif">
		<g id="Group">
			<path id="Vector" d="M125.873 10.6963C126.331 9.98087 136.079 10.6597 137.611 11.0553C145.457 13.0893 146.463 24.3288 139.635 28.1551C138.763 28.6435 135.941 29.6617 135.038 29.6617L126.24 29.6617C126.213 29.6617 125.873 29.3223 125.873 29.2979L125.873 10.6963ZM131.005 15.3162L131.005 24.678C131.005 25.5107 135.07 24.8245 135.787 24.5706C139.233 23.3497 139.838 18.2463 136.857 16.183C136.607 16.0096 135.202 15.3162 135.041 15.3162L131.008 15.3162L131.005 15.3162Z" fill="rgb(255,255,255)" fill-rule="nonzero" />
			<path id="Vector" d="M116.83 19.6919L116.83 10.6964C117.807 10.418 121.571 10.0566 121.923 11.1017L121.857 29.6764C121.583 30.0647 120.712 29.9865 120.362 29.6764C117.06 27.0881 114.018 23.5402 110.724 21.03C110.477 20.842 110.416 20.5612 109.99 20.6662L109.99 29.2979C109.99 29.3248 109.65 29.6618 109.623 29.6618L105.223 29.6618C105.196 29.6618 104.855 29.3223 104.855 29.2979L104.855 10.5743C104.855 9.93454 105.932 10.3472 106.309 10.5889C109.574 12.6718 112.917 16.9083 116.099 19.3281C116.346 19.5161 116.407 19.7969 116.833 19.6919L116.83 19.6919Z" fill="rgb(255,255,255)" fill-rule="nonzero" />
			<path id="Vector" d="M18.5755 52.2728C15.0023 52.1483 11.3949 52.3656 7.82177 52.2728L7.82177 37.9273L0 37.9273L0 34.2793L19.0649 34.2793C19.1579 34.2793 19.7233 35.4855 20.0512 35.8518C21.4022 37.3633 22.9367 38.5671 24.9313 39.1409L24.9313 44.7326L18.8202 44.7326L18.8202 38.1691L12.7091 38.1691L12.7091 44.613C12.7091 44.6398 13.0493 44.9768 13.0763 44.9768L18.5755 44.9768C18.7835 44.9768 18.5755 48.6981 18.5755 49.1107L18.5755 52.2704L18.5755 52.2728Z" fill="rgb(59,101,164)" fill-rule="nonzero" />
			<path id="Vector" d="M84.0055 10.5034C84.6981 10.3007 88.2272 10.3056 88.604 10.938C89.3211 12.1467 88.2663 20.6832 88.7778 22.6781C89.5977 26.2676 94.9672 26.0942 95.7014 22.6244C96.4209 19.2303 95.2927 14.4786 95.9315 10.9404C96.3108 10.1664 100.65 10.2348 101.068 10.9404C101.35 11.4166 101.267 20.732 101.157 21.9749C100.819 25.8158 98.9466 28.7777 95.0284 29.7373C89.5806 31.073 83.932 28.7582 83.3471 22.7318C83.1097 20.2901 83.0216 13.8828 83.3349 11.5387C83.3985 11.065 83.4768 10.6596 84.0055 10.5058L84.0055 10.5034Z" fill="rgb(255,255,255)" fill-rule="nonzero" />
			<path id="Vector" d="M71.6782 16.9578C72.1432 17.4486 75.5818 18.147 76.5656 18.5377C78.8147 19.4314 80.4642 20.6059 80.6649 23.2088C81.1079 28.9177 75.3077 30.771 70.5794 29.8383C69.4389 29.6136 65.5794 28.2047 65.2833 27.0571C65.2098 26.7714 67.1726 23.6068 67.3733 23.5653C68.083 23.4188 69.0816 24.4248 69.8329 24.7423C71.0664 25.2648 74.4535 26.0877 75.1559 24.5469C75.9954 22.7058 71.3894 22.2297 70.1486 21.7535C68.2813 21.0356 66.3111 19.7317 66.0126 17.6025C64.9504 10.011 74.013 8.47263 79.1696 11.8081C79.5636 12.0621 80.523 12.6286 80.6307 13.0534C80.7114 13.3806 78.7584 16.4353 78.5406 16.5061C77.6131 16.8065 74.8475 13.8861 72.1677 15.0117C71.365 15.3487 71.0615 16.301 71.6807 16.953L71.6782 16.9578Z" fill="rgb(255,255,255)" fill-rule="nonzero" />
			<path id="Vector" d="M160.214 29.6625C158.978 29.4549 159.411 26.6981 157.294 26.4881C156.508 26.41 151.942 26.3734 151.452 26.5419C150.838 26.7519 150.023 29.6649 149.458 29.6649L144.815 29.6649C144.666 29.6649 144.303 29.1692 144.556 28.925C147.691 23.558 149.945 17.1898 153.121 11.9107C153.714 10.9242 154.223 9.61537 155.588 10.4407C159.073 16.4719 162.008 22.8914 165.189 29.1057C165.29 29.3035 164.935 29.6649 164.859 29.6649C163.54 29.6649 161.393 29.8627 160.216 29.6649L160.214 29.6625ZM156.425 22.6106C156.376 21.585 155.718 20.2347 155.214 19.319C155.043 19.0065 155.077 18.7257 154.595 18.7184C154.382 18.7159 153.102 22.1466 153.004 22.6106L156.425 22.6106Z" fill="rgb(255,255,255)" fill-rule="nonzero" />
			<path id="Vector" d="M172.066 22.9764C171.601 20.6982 166.359 14.3764 165.169 11.6025C165.045 11.3095 164.908 11.0385 164.986 10.7088C166.276 10.4134 169.714 10.1033 170.732 10.9335C171.599 11.6416 173.214 15.6339 174.063 16.8573C174.23 17.0966 174.403 17.3163 174.633 17.5019C175 17.497 177.651 11.9444 178.304 11.1899C178.52 10.9408 179.269 10.4549 179.521 10.4549L183.676 10.4549C184.163 10.4549 183.995 11.2558 183.853 11.6001C183.145 13.302 177.201 21.8532 177.201 22.4905L177.201 29.2982C177.201 29.325 176.86 29.662 176.834 29.662L172.433 29.662C172.406 29.662 172.066 29.3226 172.066 29.2982C172.066 27.6646 172.348 24.356 172.066 22.9764Z" fill="rgb(255,255,255)" fill-rule="nonzero" />
			<path id="Vector" d="M36.1722 -0.000976562L36.1722 17.5042L52.4251 17.5042C53.0516 17.5042 52.7114 20.5589 52.7922 21.1522L38.0052 21.1522C37.8241 21.1522 35.9323 19.189 35.2691 18.7691C33.8863 17.8876 32.4987 17.5506 31.04 16.8986L31.04 -0.000976562L36.1722 -0.000976562Z" fill="rgb(79,137,205)" fill-rule="nonzero" />
			<path id="Vector" d="M3.91088 23.3401C2.61134 23.3303 1.29955 23.3474 0 23.3401L0 2.30896C0 1.7156 1.90405 -0.000976562 2.56728 -0.000976562L18.8202 -0.000976562L18.8202 3.64706L4.03325 3.64706C3.76649 3.64706 3.68328 4.24041 3.65391 4.48459C3.14486 8.79435 3.67349 15.5166 3.91088 19.9362C3.97207 21.0619 3.86683 22.212 3.91088 23.3401Z" fill="rgb(255,255,255)" fill-rule="nonzero" />
			<path id="Vector" d="M36.172 37.4419C38.0369 35.9768 39.6497 33.4618 40.0829 31.1201L56.4582 31.1201L56.4582 34.7682L47.1705 34.7682L47.1705 43.2778C47.1705 43.5586 42.0726 43.2778 41.5489 43.2778C41.5391 41.8225 41.5538 40.355 41.5489 38.8997L36.4143 38.8997C36.3898 38.6311 35.9248 37.9693 36.1696 37.4419L36.172 37.4419Z" fill="rgb(79,137,205)" fill-rule="nonzero" />
			<path id="Vector" d="M56.4608 17.2625L53.0394 17.2625L53.0394 3.64706L37.6406 3.64706L37.6406 -0.000976562L54.1383 -0.000976562C54.7183 -0.000976562 56.4608 1.73025 56.4608 2.30896L56.4608 17.2625Z" fill="rgb(255,255,255)" fill-rule="nonzero" />
			<path id="Vector" d="M19.3096 19.9362C19.0918 13.3092 19.4712 6.63092 19.3096 -0.000976562L24.8089 -0.000976562C24.8358 -0.000976562 25.176 0.338432 25.176 0.36285L25.176 17.5042C22.7849 18.1098 21.292 19.8435 19.5544 21.394C19.7012 20.6712 19.3194 20.2024 19.3096 19.9362Z" fill="rgb(125,212,239)" fill-rule="nonzero" />
			<path id="Vector" d="M28.5515 19.758C40.7639 19.0352 40.8153 38.4304 27.9862 37.1973C17.6265 36.201 17.8394 20.3904 28.5515 19.758ZM28.7865 21.9483C20.1008 22.1803 20.5169 36.0179 29.9441 35.0094C37.5554 34.1963 37.318 21.7212 28.7865 21.9483Z" fill="rgb(255,255,255)" fill-rule="nonzero" />
			<path id="Vector" d="M36.4171 38.9016C36.5444 40.2763 36.6105 41.9612 36.6618 43.2773C36.8234 47.4747 36.5419 51.7186 36.6618 55.9209C34.6281 55.9306 32.5845 55.9135 30.5508 55.9209L30.5508 39.8734C32.5699 39.4657 34.5473 38.7209 36.1724 37.4414C35.9276 37.9688 36.3926 38.6306 36.4171 38.8992L36.4171 38.9016Z" fill="rgb(125,212,239)" fill-rule="nonzero" />
			<path id="Vector" d="M18.086 24.0703C17.5843 26.0189 17.1609 27.8624 17.3518 29.9062L0 29.9062L0 24.0703L18.086 24.0703Z" fill="rgb(125,212,239)" fill-rule="nonzero" />
			<path id="Vector" d="M56.461 21.6387L56.461 26.7445L40.3304 26.7445C40.0955 24.896 39.3907 23.177 38.375 21.6387L56.461 21.6387Z" fill="rgb(125,212,239)" fill-rule="nonzero" />
			<path id="Vector" d="M137.116 39.8736L137.116 35.1317C137.116 34.6751 140.024 34.4577 140.259 35.1659L140.046 46.193C139.502 46.5715 134.197 41.0628 133.205 40.6013L133.205 45.9512C132.684 45.9024 130.273 46.1637 130.273 45.5874L130.273 34.5237C130.944 34.4626 131.588 35.0902 132.099 35.5028C133.785 36.8678 135.273 38.7065 137.116 39.8712L137.116 39.8736Z" fill="rgb(255,255,255)" fill-rule="nonzero" />
			<path id="Vector" d="M56.7032 52.8811C56.3532 55.3033 54.3831 56.2996 52.0605 55.9211L52.0605 39.1436L56.3385 39.1436C56.3655 39.1436 56.7056 39.483 56.7056 39.5074L56.7056 52.8786L56.7032 52.8811Z" fill="rgb(255,255,255)" fill-rule="nonzero" />
			<path id="Vector" d="M15.3991 7.53711L7.08789 7.53711L7.08789 16.0467L15.3991 16.0467L15.3991 7.53711Z" fill="rgb(255,255,255)" fill-rule="nonzero" />
			<path id="Vector" d="M175.27 37.4665C174.428 38.707 177.49 39.0903 178.102 39.3418C182.377 41.095 180.747 45.8468 176.557 46.1764C175.475 46.2619 171.841 45.5196 171.616 44.3353C171.552 44.0032 172.627 42.3989 172.955 42.3355C173.368 42.2549 174.971 43.7712 176.782 43.2267C179.372 42.4478 174.342 41.2635 173.929 41.0608C170.392 39.3247 171.848 34.7391 175.847 34.5144C176.897 34.4558 180.285 35.1004 180.39 36.3628C180.426 36.8073 179.643 38.0404 179.23 38.1454C178.65 38.2943 175.982 36.4166 175.27 37.469L175.27 37.4665Z" fill="rgb(255,255,255)" fill-rule="nonzero" />
			<path id="Vector" d="M76.5028 34.7681L76.5028 37.4418L72.2248 37.4418C71.8504 37.4418 71.7941 38.5528 71.8577 38.8996L75.6462 38.8996C76.2067 38.8996 75.9791 41.0874 76.0133 41.5733L72.2248 41.5733C71.7256 41.5733 71.7256 43.2753 72.2248 43.2753L76.5028 43.2753L76.5028 45.949L69.2929 45.949C69.266 45.949 68.9258 45.6096 68.9258 45.5852L68.9258 34.7656L76.5028 34.7656L76.5028 34.7681Z" fill="rgb(255,255,255)" fill-rule="nonzero" />
			<path id="Vector" d="M118.295 34.7681L118.295 37.4418L113.653 37.4418L113.653 38.8996L117.441 38.8996C118.002 38.8996 117.774 41.0874 117.808 41.5733L113.653 41.5733C113.611 41.9176 113.587 43.2753 114.02 43.2753L118.298 43.2753C118.263 43.7612 118.491 45.949 117.931 45.949L111.088 45.949C111.061 45.949 110.721 45.6096 110.721 45.5852L110.721 34.7656L118.298 34.7656L118.295 34.7681Z" fill="rgb(255,255,255)" fill-rule="nonzero" />
			<path id="Vector" d="M41.5514 43.2773C41.5783 47.487 41.5318 51.7113 41.5514 55.9209C39.9239 55.9258 38.289 55.9112 36.6616 55.9209C36.5416 51.7186 36.8231 47.4772 36.6616 43.2773L41.5489 43.2773L41.5514 43.2773Z" fill="rgb(255,255,255)" fill-rule="nonzero" />
			<path id="Vector" d="M93.3693 40.3592C93.9395 40.4837 93.7608 40.2835 93.9126 40.0466C94.4657 39.1969 96.0124 35.2851 96.3967 34.9872C97.0354 34.494 98.6458 34.8871 99.473 34.7675L93.7241 46.1926C93.1735 46.3245 91.6977 43.3137 91.3649 42.7106C89.9552 40.1394 88.7046 37.4388 87.498 34.7675C88.2861 34.9042 90.0678 34.516 90.6772 34.8847C91.1397 35.163 92.9752 39.5314 93.3668 40.3567L93.3693 40.3592Z" fill="rgb(255,255,255)" fill-rule="nonzero" />
			<path id="Vector" d="M49.1284 6.32129L41.3066 6.32129L41.3066 13.6149L49.1284 13.6149L49.1284 6.32129Z" fill="rgb(255,255,255)" fill-rule="nonzero" />
			<path id="Vector" d="M19.3098 19.9365C19.3196 20.2027 19.6989 20.6715 19.5546 21.3943C19.5203 21.5603 18.5242 23.3233 18.4141 23.3501C13.583 23.3037 8.74211 23.377 3.91346 23.3404C3.86941 22.2123 3.97465 21.0622 3.91346 19.9365L19.3123 19.9365L19.3098 19.9365Z" fill="rgb(79,137,205)" fill-rule="nonzero" />
			<path id="Vector" d="M7.3323 38.4131L0 38.4131L0 45.2208L7.3323 45.2208L7.3323 38.4131Z" fill="rgb(255,255,255)" fill-rule="nonzero" />
			<path id="Vector" d="M160.824 34.7676L160.824 37.4438C160.275 37.5024 157.647 37.2118 157.647 37.8076L157.647 45.9534C157.011 45.8533 155.151 46.1976 154.82 45.7263C154.277 44.9498 155.129 39.2043 154.678 37.8418C154.39 36.9652 152.079 37.8418 151.641 37.2143C151.399 36.8651 151.433 34.7676 151.901 34.7676L160.821 34.7676L160.824 34.7676Z" fill="rgb(255,255,255)" fill-rule="nonzero" />
			<path id="Vector" d="M7.3323 49.356L7.3323 55.9195L2.32255 55.9195C1.74252 55.9195 0 54.1858 0 53.6096L0 49.3535L7.3323 49.3535L7.3323 49.356Z" fill="rgb(255,255,255)" fill-rule="nonzero" />
			<path id="Vector" d="M51.571 47.6523L46.6836 47.6523L46.6836 55.9178L51.571 55.9178L51.571 47.6523Z" fill="rgb(79,137,205)" fill-rule="nonzero" />
			<path id="Vector" d="M18.5762 49.1133L25.1743 49.1133L25.1743 55.921L20.0421 55.921L20.0421 52.273C19.5576 52.2607 19.0632 52.2925 18.5762 52.273L18.5762 49.1133Z" fill="rgb(255,255,255)" fill-rule="nonzero" />
			<path id="Vector" d="M31.691 25.853C35.0292 29.164 30.3327 34.6727 26.6348 31.4911C22.7386 28.1385 28.0469 22.2367 31.691 25.853Z" fill="rgb(255,255,255)" fill-rule="nonzero" />
		</g>
	</g>
</svg>
