<svg width="36" height="36" viewBox="0 0 36 36" fill="none" xmlns="http://www.w3.org/2000/svg">
<g filter="url(#filter0_ii_1663_34580)">
<path d="M10.667 32.6667H26.667C28.8761 32.6667 30.667 30.8758 30.667 28.6667V14.3759C30.667 13.2643 30.3197 12.1805 29.6736 11.2759L25.5956 5.56677C24.5945 4.16519 22.9781 3.33337 21.2557 3.33337H10.667C8.45785 3.33337 6.66699 5.12424 6.66699 7.33338V28.6667C6.66699 30.8758 8.45785 32.6667 10.667 32.6667Z" fill="url(#paint0_linear_1663_34580)"/>
</g>
<path d="M21.2559 3.00037C23.0859 3.00042 24.8035 3.88428 25.8672 5.37341L29.9443 11.0824C30.6308 12.0435 31 13.1953 31 14.3763V28.6664C31 31.0596 29.0602 33.0004 26.667 33.0004H10.667C8.27376 33.0004 6.33398 31.0596 6.33398 28.6664V7.33337C6.33399 4.94014 8.27376 3.00037 10.667 3.00037H21.2559Z" stroke="#E7E9E9" stroke-width="0.666667"/>
<g filter="url(#filter1_d_1663_34580)">
<mask id="path-3-inside-1_1663_34580" fill="white">
<path d="M4 19.3334C4 17.8607 5.19391 16.6667 6.66667 16.6667H18.6667C20.1394 16.6667 21.3333 17.8607 21.3333 19.3334V24.6667C21.3333 26.1395 20.1394 27.3334 18.6667 27.3334H6.66667C5.19391 27.3334 4 26.1395 4 24.6667V19.3334Z"/>
</mask>
<path d="M4 19.3334C4 17.8607 5.19391 16.6667 6.66667 16.6667H18.6667C20.1394 16.6667 21.3333 17.8607 21.3333 19.3334V24.6667C21.3333 26.1395 20.1394 27.3334 18.6667 27.3334H6.66667C5.19391 27.3334 4 26.1395 4 24.6667V19.3334Z" fill="url(#paint1_linear_1663_34580)"/>
<path d="M4 19.3334C4 17.5845 5.41777 16.1667 7.16667 16.1667H18.1667C19.9156 16.1667 21.3333 17.5845 21.3333 19.3334C21.3333 18.1368 20.1394 17.1667 18.6667 17.1667H6.66667C5.19391 17.1667 4 18.1368 4 19.3334ZM21.3333 27.3334H4H21.3333ZM4 27.3334V16.6667V27.3334ZM21.3333 16.6667V27.3334V16.6667Z" fill="white" fill-opacity="0.3" mask="url(#path-3-inside-1_1663_34580)"/>
<path d="M7.25366 24.1667V23.3934H7.99366V24.1667H7.25366ZM9.03423 25.3201V20.6601H9.6009L9.6609 21.1401H9.70757C9.82757 20.9534 9.9809 20.8134 10.1676 20.7201C10.3542 20.6267 10.5631 20.5801 10.7942 20.5801C11.0831 20.5801 11.3298 20.6445 11.5342 20.7734C11.7431 20.9023 11.9031 21.1023 12.0142 21.3734C12.1253 21.6445 12.1809 21.9956 12.1809 22.4267C12.1809 22.8445 12.1231 23.189 12.0076 23.4601C11.8965 23.7267 11.7387 23.9245 11.5342 24.0534C11.3298 24.1823 11.0942 24.2467 10.8276 24.2467C10.672 24.2467 10.5276 24.229 10.3942 24.1934C10.2609 24.1579 10.1409 24.1023 10.0342 24.0267C9.93201 23.9512 9.84312 23.8556 9.76757 23.7401H9.72757V25.3201H9.03423ZM10.5876 23.6467C10.7965 23.6467 10.9653 23.6067 11.0942 23.5267C11.2231 23.4423 11.3165 23.3134 11.3742 23.1401C11.4365 22.9667 11.4676 22.7467 11.4676 22.4801V22.3601C11.4676 22.0801 11.4365 21.8534 11.3742 21.6801C11.312 21.5067 11.2165 21.3801 11.0876 21.3001C10.9631 21.2201 10.8009 21.1801 10.6009 21.1801C10.3965 21.1801 10.2298 21.2267 10.1009 21.3201C9.97201 21.409 9.87645 21.5423 9.81423 21.7201C9.75645 21.8979 9.72757 22.1134 9.72757 22.3667V22.4601C9.72757 22.669 9.74757 22.849 9.78757 23.0001C9.82757 23.1512 9.88534 23.2756 9.9609 23.3734C10.0365 23.4667 10.1276 23.5356 10.2342 23.5801C10.3409 23.6245 10.4587 23.6467 10.5876 23.6467ZM14.1016 24.2467C13.8171 24.2467 13.5705 24.1823 13.3616 24.0534C13.1527 23.9245 12.9905 23.7245 12.8749 23.4534C12.7638 23.1823 12.7082 22.8312 12.7082 22.4001C12.7082 21.9779 12.766 21.6334 12.8816 21.3667C12.9971 21.1001 13.1571 20.9023 13.3616 20.7734C13.566 20.6445 13.8016 20.5801 14.0682 20.5801C14.2238 20.5801 14.3682 20.5979 14.5016 20.6334C14.6349 20.669 14.7527 20.7245 14.8549 20.8001C14.9616 20.8756 15.0505 20.9712 15.1216 21.0867H15.1682V19.3467H15.8616V24.1667H15.2949L15.2282 23.6867H15.1816C15.066 23.8734 14.9127 24.0134 14.7216 24.1067C14.5349 24.2001 14.3282 24.2467 14.1016 24.2467ZM14.2949 23.6467C14.4994 23.6467 14.6638 23.6023 14.7882 23.5134C14.9171 23.4201 15.0127 23.2867 15.0749 23.1134C15.1371 22.9356 15.1682 22.7201 15.1682 22.4667V22.3734C15.1682 22.1601 15.1482 21.9779 15.1082 21.8267C15.0682 21.6756 15.0105 21.5534 14.9349 21.4601C14.8594 21.3623 14.7682 21.2912 14.6616 21.2467C14.5549 21.2023 14.4349 21.1801 14.3016 21.1801C14.0971 21.1801 13.9305 21.2223 13.8016 21.3067C13.6727 21.3867 13.5771 21.5134 13.5149 21.6867C13.4571 21.8601 13.4282 22.0845 13.4282 22.3601V22.4801C13.4282 22.7556 13.4594 22.9801 13.5216 23.1534C13.5838 23.3223 13.6771 23.4467 13.8016 23.5267C13.9305 23.6067 14.0949 23.6467 14.2949 23.6467ZM16.9089 24.1667V21.2334H16.3956V20.6601H16.9089V20.1534C16.9089 20.0067 16.9311 19.869 16.9756 19.7401C17.0245 19.6112 17.1067 19.5045 17.2223 19.4201C17.3423 19.3356 17.5111 19.2934 17.7289 19.2934C17.7911 19.2934 17.8534 19.2979 17.9156 19.3067C17.9823 19.3112 18.0445 19.3201 18.1023 19.3334C18.16 19.3467 18.2111 19.3623 18.2556 19.3801V19.8667H17.9156C17.8089 19.8667 17.7289 19.8934 17.6756 19.9467C17.6267 20.0001 17.6023 20.0779 17.6023 20.1801V20.6601H18.2556V21.2334H17.6023V24.1667H16.9089Z" fill="white"/>
</g>
<defs>
<filter id="filter0_ii_1663_34580" x="5.33333" y="2.00008" width="26.6673" height="32" filterUnits="userSpaceOnUse" color-interpolation-filters="sRGB">
<feFlood flood-opacity="0" result="BackgroundImageFix"/>
<feBlend mode="normal" in="SourceGraphic" in2="BackgroundImageFix" result="shape"/>
<feColorMatrix in="SourceAlpha" type="matrix" values="0 0 0 0 0 0 0 0 0 0 0 0 0 0 0 0 0 0 127 0" result="hardAlpha"/>
<feOffset dx="-0.666667" dy="-0.666667"/>
<feGaussianBlur stdDeviation="0.333333"/>
<feComposite in2="hardAlpha" operator="arithmetic" k2="-1" k3="1"/>
<feColorMatrix type="matrix" values="0 0 0 0 0.88 0 0 0 0 0.88 0 0 0 0 0.88 0 0 0 0.5 0"/>
<feBlend mode="normal" in2="shape" result="effect1_innerShadow_1663_34580"/>
<feColorMatrix in="SourceAlpha" type="matrix" values="0 0 0 0 0 0 0 0 0 0 0 0 0 0 0 0 0 0 127 0" result="hardAlpha"/>
<feOffset dx="0.666667" dy="0.666667"/>
<feGaussianBlur stdDeviation="0.333333"/>
<feComposite in2="hardAlpha" operator="arithmetic" k2="-1" k3="1"/>
<feColorMatrix type="matrix" values="0 0 0 0 1 0 0 0 0 1 0 0 0 0 1 0 0 0 0.9 0"/>
<feBlend mode="normal" in2="effect1_innerShadow_1663_34580" result="effect2_innerShadow_1663_34580"/>
</filter>
<filter id="filter1_d_1663_34580" x="2.66667" y="16.0001" width="19.9997" height="13.3333" filterUnits="userSpaceOnUse" color-interpolation-filters="sRGB">
<feFlood flood-opacity="0" result="BackgroundImageFix"/>
<feColorMatrix in="SourceAlpha" type="matrix" values="0 0 0 0 0 0 0 0 0 0 0 0 0 0 0 0 0 0 127 0" result="hardAlpha"/>
<feOffset dy="0.666667"/>
<feGaussianBlur stdDeviation="0.666667"/>
<feComposite in2="hardAlpha" operator="out"/>
<feColorMatrix type="matrix" values="0 0 0 0 0 0 0 0 0 0 0 0 0 0 0 0 0 0 0.1 0"/>
<feBlend mode="normal" in2="BackgroundImageFix" result="effect1_dropShadow_1663_34580"/>
<feBlend mode="normal" in="SourceGraphic" in2="effect1_dropShadow_1663_34580" result="shape"/>
</filter>
<linearGradient id="paint0_linear_1663_34580" x1="10.0003" y1="1.00004" x2="20.0003" y2="32.6667" gradientUnits="userSpaceOnUse">
<stop stop-color="white"/>
<stop offset="1" stop-color="#F5F5F5"/>
</linearGradient>
<linearGradient id="paint1_linear_1663_34580" x1="12.6667" y1="16.6667" x2="12.6667" y2="27.3334" gradientUnits="userSpaceOnUse">
<stop stop-color="#E4263C"/>
<stop offset="1" stop-color="#D01C31"/>
</linearGradient>
</defs>
</svg>
