<svg width="41" height="41" viewBox="0 0 41 41" fill="none" xmlns="http://www.w3.org/2000/svg">
<rect x="0.5" y="0.5" width="40" height="40" rx="10" fill="white"/>
<rect x="0.5" y="0.5" width="40" height="40" rx="10" stroke="#EDEDED"/>
<rect x="2.75" y="2.75" width="35.5" height="35.5" rx="7.75" fill="white"/>
<rect x="2.75" y="2.75" width="35.5" height="35.5" rx="7.75" stroke="url(#paint0_linear_384_23243)" stroke-width="0.5"/>
<path d="M25.1827 19.4584C24.8243 19.4584 24.541 19.1667 24.541 18.8167C24.541 18.5084 24.2327 17.8667 23.716 17.3084C23.2077 16.7667 22.6493 16.45 22.1827 16.45C21.8243 16.45 21.541 16.1584 21.541 15.8084C21.541 15.4584 21.8327 15.1667 22.1827 15.1667C23.016 15.1667 23.891 15.6167 24.6577 16.425C25.3743 17.1834 25.8327 18.125 25.8327 18.8084C25.8327 19.1667 25.541 19.4584 25.1827 19.4584Z" fill="#292D32"/>
<path d="M28.1924 19.4584C27.8341 19.4584 27.5508 19.1667 27.5508 18.8167C27.5508 15.8584 25.1424 13.4584 22.1924 13.4584C21.8341 13.4584 21.5508 13.1667 21.5508 12.8167C21.5508 12.4667 21.8341 12.1667 22.1841 12.1667C25.8508 12.1667 28.8341 15.15 28.8341 18.8167C28.8341 19.1667 28.5424 19.4584 28.1924 19.4584Z" fill="#292D32"/>
<path opacity="0.4" d="M20.3243 22.3417L17.5993 25.0667C17.2993 24.8 17.0077 24.525 16.7243 24.2417C15.866 23.375 15.091 22.4667 14.3993 21.5167C13.716 20.5667 13.166 19.6167 12.766 18.675C12.366 17.725 12.166 16.8167 12.166 15.95C12.166 15.3834 12.266 14.8417 12.466 14.3417C12.666 13.8334 12.9827 13.3667 13.4243 12.95C13.9577 12.425 14.541 12.1667 15.1577 12.1667C15.391 12.1667 15.6243 12.2167 15.8327 12.3167C16.0493 12.4167 16.241 12.5667 16.391 12.7834L18.3243 15.5084C18.4743 15.7167 18.5827 15.9084 18.6577 16.0917C18.7327 16.2667 18.7743 16.4417 18.7743 16.6C18.7743 16.8 18.716 17 18.5993 17.1917C18.491 17.3834 18.3327 17.5834 18.1327 17.7834L17.4993 18.4417C17.4077 18.5334 17.366 18.6417 17.366 18.775C17.366 18.8417 17.3743 18.9 17.391 18.9667C17.416 19.0334 17.441 19.0834 17.4577 19.1334C17.6077 19.4084 17.866 19.7667 18.2327 20.2C18.6077 20.6334 19.0077 21.075 19.441 21.5167C19.741 21.8084 20.0327 22.0917 20.3243 22.3417Z" fill="#292D32"/>
<path d="M28.8083 25.775C28.8083 26.0083 28.7667 26.25 28.6833 26.4833C28.6583 26.55 28.6333 26.6167 28.6 26.6833C28.4583 26.9833 28.275 27.2667 28.0333 27.5333C27.625 27.9833 27.175 28.3083 26.6667 28.5167C26.6583 28.5167 26.65 28.525 26.6417 28.525C26.15 28.725 25.6167 28.8333 25.0417 28.8333C24.1917 28.8333 23.2833 28.6333 22.325 28.225C21.3667 27.8167 20.4083 27.2667 19.4583 26.575C19.1333 26.3333 18.8083 26.0917 18.5 25.8333L21.225 23.1083C21.4583 23.2833 21.6667 23.4167 21.8417 23.5083C21.8833 23.525 21.9333 23.55 21.9917 23.575C22.0583 23.6 22.125 23.6083 22.2 23.6083C22.3417 23.6083 22.45 23.5583 22.5417 23.4667L23.175 22.8417C23.3833 22.6333 23.5833 22.475 23.775 22.375C23.9667 22.2583 24.1583 22.2 24.3667 22.2C24.525 22.2 24.6917 22.2333 24.875 22.3083C25.0583 22.3833 25.25 22.4917 25.4583 22.6333L28.2167 24.5917C28.4333 24.7417 28.5833 24.9167 28.675 25.125C28.7583 25.3333 28.8083 25.5417 28.8083 25.775Z" fill="#292D32"/>
<defs>
<linearGradient id="paint0_linear_384_23243" x1="20.5" y1="2.5" x2="20.5" y2="38.5" gradientUnits="userSpaceOnUse">
<stop stop-color="#EDEDED"/>
<stop offset="1" stop-color="#EDEDED" stop-opacity="0"/>
</linearGradient>
</defs>
</svg>
