<svg viewBox="0 0 120 40" xmlns="http://www.w3.org/2000/svg" xmlns:xlink="http://www.w3.org/1999/xlink" width="120.000000" height="40.000000" fill="none" clip-path="url(#clipPath_0)" customFrame="url(#clipPath_0)">
	<defs>
		<clipPath id="clipPath_0">
			<rect width="120.000000" height="40.000000" x="0.000000" y="0.000000" rx="6.000000" fill="rgb(255,255,255)" />
		</clipPath>
		<clipPath id="clipPath_1">
			<rect width="21.000000" height="24.000000" x="8.000000" y="8.000000" fill="rgb(255,255,255)" />
		</clipPath>
		<clipPath id="clipPath_2">
			<rect width="74.000000" height="32.000000" x="36.000000" y="5.500000" fill="rgb(255,255,255)" />
		</clipPath>
	</defs>
	<rect id="Store download button" width="120.000000" height="40.000000" x="0.000000" y="0.000000" rx="6.000000" fill="rgb(255,255,255)" />
	<rect id="Store download button" width="119.000000" height="39.000000" x="0.500000" y="0.500000" rx="5.500000" stroke="rgb(0,0,0)" stroke-width="1" />
	<g id="Playstore" customFrame="url(#clipPath_1)">
		<rect id="Playstore" width="21.000000" height="24.000000" x="8.000000" y="8.000000" />
		<path id="path94" d="M9.71522 12.5383L0 1.99408C0.000912484 1.99221 0.000912352 1.98941 0.00182484 1.98754C0.300207 0.842607 1.32219 0 2.53579 0C3.02123 0 3.47656 0.134369 3.86711 0.369515L3.89813 0.388178L14.8333 6.8407L9.71522 12.5383Z" fill="rgb(234,67,53)" fill-rule="nonzero" transform="matrix(1,0,0,-1,8.08984,32)" />
		<path id="path98" d="M10.0492 7.49201L10.0401 7.49855L5.31887 10.297L0 5.45688L5.33803 0L10.0337 2.77043C10.8567 3.22579 11.4161 4.11319 11.4161 5.13589C11.4161 6.15299 10.8649 7.03572 10.0492 7.49201Z" fill="rgb(251,188,4)" fill-rule="nonzero" transform="matrix(1,0,0,-1,17.584,25.1582)" />
		<path id="path102" d="M0.0894234 20.0126C0.0310244 19.7924 0 19.561 0 19.3221L0 0.689575C0 0.450697 0.0310245 0.219283 0.0903359 0L10.1386 10.2746L0.0894234 20.0126Z" fill="rgb(66,133,244)" fill-rule="nonzero" transform="matrix(1,0,0,-1,8,30.0059)" />
		<path id="path106" d="M9.7873 0L14.8151 5.14055L3.89266 11.6164C3.49573 11.8599 3.03218 11.9999 2.53671 11.9999C1.3231 11.9999 0.299294 11.1554 0.000911983 10.0096C0.000911983 10.0086 0 10.0077 0 10.0068L9.7873 0Z" fill="rgb(52,168,83)" fill-rule="nonzero" transform="matrix(1,0,0,-1,8.08887,20)" />
	</g>
	<g id="Content" customFrame="url(#clipPath_2)">
		<rect id="Content" width="74.000000" height="32.000000" x="36.000000" y="5.500000" />
		<path id="Disponible sur" d="M38.646 9.377C39.33 9.377 39.921 9.506 40.419 9.764C40.923 10.016 41.307 10.379 41.571 10.853C41.841 11.327 41.976 11.885 41.976 12.527C41.976 13.169 41.841 13.727 41.571 14.201C41.307 14.669 40.923 15.029 40.419 15.281C39.921 15.527 39.33 15.65 38.646 15.65L36.693 15.65L36.693 9.377L38.646 9.377ZM38.646 14.975C39.456 14.975 40.074 14.762 40.5 14.336C40.926 13.904 41.139 13.301 41.139 12.527C41.139 11.747 40.923 11.138 40.491 10.7C40.065 10.262 39.45 10.043 38.646 10.043L37.512 10.043L37.512 14.975L38.646 14.975ZM43.8753 9.377L43.8753 15.65L43.0563 15.65L43.0563 9.377L43.8753 9.377ZM47.2601 15.713C46.8461 15.713 46.4741 15.641 46.1441 15.497C45.8201 15.347 45.5651 15.143 45.3791 14.885C45.1931 14.621 45.0971 14.318 45.0911 13.976L45.9641 13.976C45.9941 14.27 46.1141 14.519 46.3241 14.723C46.5401 14.921 46.8521 15.02 47.2601 15.02C47.6501 15.02 47.9561 14.924 48.1781 14.732C48.4061 14.534 48.5201 14.282 48.5201 13.976C48.5201 13.736 48.4541 13.541 48.3221 13.391C48.1901 13.241 48.0251 13.127 47.8271 13.049C47.6291 12.971 47.3621 12.887 47.0261 12.797C46.6121 12.689 46.2791 12.581 46.0271 12.473C45.7811 12.365 45.5681 12.197 45.3881 11.969C45.2141 11.735 45.1271 11.423 45.1271 11.033C45.1271 10.691 45.2141 10.388 45.3881 10.124C45.5621 9.86 45.8051 9.656 46.1171 9.512C46.4351 9.368 46.7981 9.296 47.2061 9.296C47.7941 9.296 48.2741 9.443 48.6461 9.737C49.0241 10.031 49.2371 10.421 49.2851 10.907L48.3851 10.907C48.3551 10.667 48.2291 10.457 48.0071 10.277C47.7851 10.091 47.4911 9.998 47.1251 9.998C46.7831 9.998 46.5041 10.088 46.2881 10.268C46.0721 10.442 45.9641 10.688 45.9641 11.006C45.9641 11.234 46.0271 11.42 46.1531 11.564C46.2851 11.708 46.4441 11.819 46.6301 11.897C46.8221 11.969 47.0891 12.053 47.4311 12.149C47.8451 12.263 48.1781 12.377 48.4301 12.491C48.6821 12.599 48.8981 12.77 49.0781 13.004C49.2581 13.232 49.3481 13.544 49.3481 13.94C49.3481 14.246 49.2671 14.534 49.1051 14.804C48.9431 15.074 48.7031 15.293 48.3851 15.461C48.0671 15.629 47.6921 15.713 47.2601 15.713ZM54.7474 11.213C54.7474 11.735 54.5674 12.17 54.2074 12.518C53.8534 12.86 53.3104 13.031 52.5784 13.031L51.3724 13.031L51.3724 15.65L50.5534 15.65L50.5534 9.377L52.5784 9.377C53.2864 9.377 53.8234 9.548 54.1894 9.89C54.5614 10.232 54.7474 10.673 54.7474 11.213ZM52.5784 12.356C53.0344 12.356 53.3704 12.257 53.5863 12.059C53.8024 11.861 53.9104 11.579 53.9104 11.213C53.9104 10.439 53.4664 10.052 52.5784 10.052L51.3724 10.052L51.3724 12.356L52.5784 12.356ZM58.6093 15.713C58.0273 15.713 57.4963 15.578 57.0163 15.308C56.5363 15.032 56.1553 14.651 55.8733 14.165C55.5973 13.673 55.4593 13.121 55.4593 12.509C55.4593 11.897 55.5973 11.348 55.8733 10.862C56.1553 10.37 56.5363 9.989 57.0163 9.719C57.4963 9.443 58.0273 9.305 58.6093 9.305C59.1973 9.305 59.7313 9.443 60.2113 9.719C60.6913 9.989 61.0693 10.367 61.3453 10.853C61.6213 11.339 61.7593 11.891 61.7593 12.509C61.7593 13.127 61.6213 13.679 61.3453 14.165C61.0693 14.651 60.6913 15.032 60.2113 15.308C59.7313 15.578 59.1973 15.713 58.6093 15.713ZM58.6093 15.002C59.0473 15.002 59.4403 14.9 59.7883 14.696C60.1423 14.492 60.4183 14.201 60.6163 13.823C60.8203 13.445 60.9223 13.007 60.9223 12.509C60.9223 12.005 60.8203 11.567 60.6163 11.195C60.4183 10.817 60.1453 10.526 59.7973 10.322C59.4493 10.118 59.0533 10.016 58.6093 10.016C58.1653 10.016 57.7693 10.118 57.4213 10.322C57.0733 10.526 56.7973 10.817 56.5933 11.195C56.3953 11.567 56.2963 12.005 56.2963 12.509C56.2963 13.007 56.3953 13.445 56.5933 13.823C56.7973 14.201 57.0733 14.492 57.4213 14.696C57.7753 14.9 58.1713 15.002 58.6093 15.002ZM67.7725 15.65L66.9535 15.65L63.6595 10.655L63.6595 15.65L62.8405 15.65L62.8405 9.368L63.6595 9.368L66.9535 14.354L66.9535 9.368L67.7725 9.368L67.7725 15.65ZM69.9876 9.377L69.9876 15.65L69.1686 15.65L69.1686 9.377L69.9876 9.377ZM74.5244 12.419C74.7524 12.455 74.9594 12.548 75.1454 12.698C75.3374 12.848 75.4874 13.034 75.5954 13.256C75.7094 13.478 75.7664 13.715 75.7664 13.967C75.7664 14.285 75.6854 14.573 75.5234 14.831C75.3614 15.083 75.1244 15.284 74.8124 15.434C74.5064 15.578 74.1434 15.65 73.7234 15.65L71.3834 15.65L71.3834 9.377L73.6334 9.377C74.0594 9.377 74.4224 9.449 74.7224 9.593C75.0224 9.731 75.2474 9.92 75.3974 10.16C75.5474 10.4 75.6224 10.67 75.6224 10.97C75.6224 11.342 75.5204 11.651 75.3164 11.897C75.1184 12.137 74.8544 12.311 74.5244 12.419ZM72.2024 12.086L73.5794 12.086C73.9634 12.086 74.2604 11.996 74.4704 11.816C74.6804 11.636 74.7854 11.387 74.7854 11.069C74.7854 10.751 74.6804 10.502 74.4704 10.322C74.2604 10.142 73.9574 10.052 73.5614 10.052L72.2024 10.052L72.2024 12.086ZM73.6514 14.975C74.0594 14.975 74.3774 14.879 74.6054 14.687C74.8334 14.495 74.9474 14.228 74.9474 13.886C74.9474 13.538 74.8274 13.265 74.5874 13.067C74.3474 12.863 74.0264 12.761 73.6244 12.761L72.2024 12.761L72.2024 14.975L73.6514 14.975ZM77.722 14.984L79.918 14.984L79.918 15.65L76.903 15.65L76.903 9.377L77.722 9.377L77.722 14.984ZM81.6067 10.043L81.6067 12.14L83.8927 12.14L83.8927 12.815L81.6067 12.815L81.6067 14.975L84.1627 14.975L84.1627 15.65L80.7877 15.65L80.7877 9.368L84.1627 9.368L84.1627 10.043L81.6067 10.043ZM89.7904 15.713C89.3764 15.713 89.0044 15.641 88.6744 15.497C88.3504 15.347 88.0954 15.143 87.9094 14.885C87.7234 14.621 87.6274 14.318 87.6214 13.976L88.4944 13.976C88.5244 14.27 88.6444 14.519 88.8544 14.723C89.0704 14.921 89.3824 15.02 89.7904 15.02C90.1804 15.02 90.4864 14.924 90.7084 14.732C90.9364 14.534 91.0504 14.282 91.0504 13.976C91.0504 13.736 90.9844 13.541 90.8524 13.391C90.7204 13.241 90.5554 13.127 90.3574 13.049C90.1594 12.971 89.8924 12.887 89.5564 12.797C89.1424 12.689 88.8094 12.581 88.5574 12.473C88.3114 12.365 88.0984 12.197 87.9184 11.969C87.7444 11.735 87.6574 11.423 87.6574 11.033C87.6574 10.691 87.7444 10.388 87.9184 10.124C88.0924 9.86 88.3354 9.656 88.6474 9.512C88.9654 9.368 89.3284 9.296 89.7364 9.296C90.3244 9.296 90.8044 9.443 91.1764 9.737C91.5544 10.031 91.7674 10.421 91.8154 10.907L90.9154 10.907C90.8854 10.667 90.7594 10.457 90.5374 10.277C90.3154 10.091 90.0214 9.998 89.6554 9.998C89.3134 9.998 89.0344 10.088 88.8184 10.268C88.6024 10.442 88.4944 10.688 88.4944 11.006C88.4944 11.234 88.5574 11.42 88.6834 11.564C88.8154 11.708 88.9744 11.819 89.1604 11.897C89.3524 11.969 89.6194 12.053 89.9614 12.149C90.3754 12.263 90.7084 12.377 90.9604 12.491C91.2124 12.599 91.4284 12.77 91.6084 13.004C91.7884 13.232 91.8784 13.544 91.8784 13.94C91.8784 14.246 91.7974 14.534 91.6354 14.804C91.4734 15.074 91.2334 15.293 90.9154 15.461C90.5974 15.629 90.2224 15.713 89.7904 15.713ZM93.8846 9.377L93.8846 13.346C93.8846 13.904 94.0196 14.318 94.2896 14.588C94.5656 14.858 94.9466 14.993 95.4326 14.993C95.9126 14.993 96.2876 14.858 96.5576 14.588C96.8336 14.318 96.9716 13.904 96.9716 13.346L96.9716 9.377L97.7906 9.377L97.7906 13.337C97.7906 13.859 97.6856 14.3 97.4756 14.66C97.2656 15.014 96.9806 15.278 96.6206 15.452C96.2666 15.626 95.8676 15.713 95.4236 15.713C94.9796 15.713 94.5776 15.626 94.2176 15.452C93.8636 15.278 93.5816 15.014 93.3716 14.66C93.1676 14.3 93.0656 13.859 93.0656 13.337L93.0656 9.377L93.8846 9.377ZM102.46 15.65L100.966 13.085L99.9759 13.085L99.9759 15.65L99.1569 15.65L99.1569 9.377L101.182 9.377C101.656 9.377 102.055 9.458 102.379 9.62C102.709 9.782 102.955 10.001 103.117 10.277C103.279 10.553 103.36 10.868 103.36 11.222C103.36 11.654 103.234 12.035 102.982 12.365C102.736 12.695 102.364 12.914 101.866 13.022L103.441 15.65L102.46 15.65ZM99.9759 12.428L101.182 12.428C101.626 12.428 101.959 12.32 102.181 12.104C102.403 11.882 102.514 11.588 102.514 11.222C102.514 10.85 102.403 10.562 102.181 10.358C101.965 10.154 101.632 10.052 101.182 10.052L99.9759 10.052L99.9759 12.428Z" fill="rgb(0,0,0)" fill-rule="nonzero" />
		<path id="path90" d="M57.5181 3.59035L59.1469 3.59035L59.1469 14.6019L57.5181 14.6019L57.5181 3.59035ZM72.1888 10.6354L70.3217 5.86118L70.2658 5.86118L68.328 10.6354L66.5735 10.6354L69.4793 3.96295L67.8234 0.251042L69.5212 0.251042L74 10.6354L72.1888 10.6354ZM62.9519 4.84115C62.4176 4.84115 61.6739 5.10981 61.6739 5.77662C61.6739 6.62576 62.6001 6.95167 63.4005 6.95167C64.1163 6.95167 64.4541 6.79576 64.8888 6.58348C64.7622 5.56345 63.892 4.84115 62.9519 4.84115ZM63.1483 10.8759C61.969 10.8759 60.7469 10.3518 60.2424 9.18991L61.6879 8.58124C61.9969 9.18991 62.5721 9.38898 63.1762 9.38898C64.0185 9.38898 64.8748 8.87897 64.8888 7.9717L64.8888 7.85895C64.5938 8.02895 63.9627 8.28352 63.1902 8.28352C61.632 8.28352 60.0451 7.4194 60.0451 5.8048C60.0451 4.33114 61.323 3.38159 62.7546 3.38159C63.8501 3.38159 64.4541 3.8775 64.8329 4.45886L64.8888 4.45886L64.8888 3.60884L66.4609 3.60884L66.4609 7.83076C66.4609 9.78537 65.0154 10.8759 63.1483 10.8759M53.0821 9.29473L50.7655 9.29473L50.7655 13.0692L53.0821 13.0692C54.2998 13.0692 54.9911 12.0518 54.9911 11.1824C54.9911 10.3289 54.2998 9.29473 53.0821 9.29473ZM53.0402 14.6019L49.1375 14.6019L49.1375 3.59035L50.7655 3.59035L50.7655 7.76205L53.0402 7.76205C54.8453 7.76205 56.6199 9.08157 56.6199 11.1824C56.6199 13.2832 54.8453 14.6019 53.0402 14.6019M31.7583 4.83939C30.6332 4.83939 29.6913 5.78983 29.6913 7.09525C29.6913 8.41476 30.6332 9.38018 31.7583 9.38018C32.8695 9.38018 33.7406 8.41476 33.7406 7.09525C33.7406 5.78983 32.8695 4.83939 31.7583 4.83939ZM33.6289 10.0188L33.5722 10.0188C33.2064 10.4583 32.5038 10.8556 31.6178 10.8556C29.7611 10.8556 28.0599 9.21017 28.0599 7.09525C28.0599 4.9953 29.7611 3.36309 31.6178 3.36309C32.5038 3.36309 33.2064 3.76035 33.5722 4.21487L33.6289 4.21487L33.6289 3.67491C33.6289 2.24177 32.8695 1.47543 31.6457 1.47543C30.6471 1.47543 30.0282 2.19948 29.7751 2.80991L28.3549 2.21358C28.7626 1.21998 29.8458 0 31.6457 0C33.5582 0 35.1757 1.13542 35.1757 3.90217L35.1757 10.6292L33.6289 10.6292L33.6289 10.0188ZM36.3008 3.59035L37.9323 3.59035L37.9323 14.6027L36.3008 14.6027L36.3008 3.59035ZM40.3362 7.22297C40.2943 8.67021 41.4474 9.40836 42.2766 9.40836C42.9243 9.40836 43.4725 9.08245 43.6549 8.61384L40.3362 7.22297ZM45.3989 8.47202C45.0899 9.30883 44.1472 10.8556 42.2208 10.8556C40.3083 10.8556 38.7196 9.3379 38.7196 7.10934C38.7196 5.0094 40.2943 3.36309 42.4032 3.36309C44.1053 3.36309 45.0899 4.41306 45.4976 5.02349L44.2319 5.87527C43.8103 5.25075 43.2333 4.83939 42.4032 4.83939C41.5739 4.83939 40.983 5.22256 40.6033 5.97393L45.5674 8.04657L45.3989 8.47202ZM5.8501 9.70609L5.8501 8.11704L9.61836 8.11704C9.50576 7.22297 9.21072 6.57026 8.76118 6.11663C8.21214 5.56257 7.35409 4.95214 5.8501 4.95214C3.52909 4.95214 1.71523 6.8398 1.71523 9.1811C1.71523 11.5233 3.52909 13.4101 5.8501 13.4101C7.10182 13.4101 8.01574 12.9133 8.69048 12.2746L9.80167 13.396C8.85895 14.3041 7.6081 15 5.8501 15C2.67191 15 0 12.3883 0 9.1811C0 5.97393 2.67191 3.36309 5.8501 3.36309C7.56533 3.36309 8.85895 3.93123 9.8715 4.9953C10.9129 6.04528 11.2358 7.5207 11.2358 8.71337C11.2358 9.08245 11.2079 9.42246 11.1512 9.70609L5.8501 9.70609ZM15.5208 4.83939C14.3957 4.83939 13.425 5.77574 13.425 7.10934C13.425 8.45793 14.3957 9.38018 15.5208 9.38018C16.6451 9.38018 17.6158 8.45793 17.6158 7.10934C17.6158 5.77574 16.6451 4.83939 15.5208 4.83939ZM15.5208 10.8556C13.4669 10.8556 11.7936 9.28064 11.7936 7.10934C11.7936 4.95214 13.4669 3.36309 15.5208 3.36309C17.5739 3.36309 19.2472 4.95214 19.2472 7.10934C19.2472 9.28064 17.5739 10.8556 15.5208 10.8556ZM23.65 4.83939C22.5249 4.83939 21.5542 5.77574 21.5542 7.10934C21.5542 8.45793 22.5249 9.38018 23.65 9.38018C24.7752 9.38018 25.745 8.45793 25.745 7.10934C25.745 5.77574 24.7752 4.83939 23.65 4.83939ZM23.65 10.8556C21.597 10.8556 19.9237 9.28064 19.9237 7.10934C19.9237 4.95214 21.597 3.36309 23.65 3.36309C25.7031 3.36309 27.3764 4.95214 27.3764 7.10934C27.3764 9.28064 25.7031 10.8556 23.65 10.8556Z" fill="rgb(0,0,0)" fill-rule="nonzero" transform="matrix(1,0,0,-1,36,37.5)" />
	</g>
</svg>
