<svg viewBox="0 0 32 32" xmlns="http://www.w3.org/2000/svg" xmlns:xlink="http://www.w3.org/1999/xlink" width="32.000000" height="32.000000" fill="none" customFrame="#000000">
	<g id="scan">
		<path id="Vector" d="M2.66699 13.0001C2.12033 13.0001 1.66699 12.5467 1.66699 12.0001L1.66699 8.66675C1.66699 4.80008 4.81366 1.66675 8.66699 1.66675L12.0003 1.66675C12.547 1.66675 13.0003 2.12008 13.0003 2.66675C13.0003 3.21341 12.547 3.66675 12.0003 3.66675L8.66699 3.66675C5.90699 3.66675 3.66699 5.90675 3.66699 8.66675L3.66699 12.0001C3.66699 12.5467 3.21366 13.0001 2.66699 13.0001Z" fill="rgb(31,215,243)" fill-rule="nonzero" />
		<path id="Vector" d="M29.3333 13.0001C28.7867 13.0001 28.3333 12.5467 28.3333 12.0001L28.3333 8.66675C28.3333 5.90675 26.0933 3.66675 23.3333 3.66675L20 3.66675C19.4533 3.66675 19 3.21341 19 2.66675C19 2.12008 19.4533 1.66675 20 1.66675L23.3333 1.66675C27.1867 1.66675 30.3333 4.80008 30.3333 8.66675L30.3333 12.0001C30.3333 12.5467 29.88 13.0001 29.3333 13.0001Z" fill="rgb(31,215,243)" fill-rule="nonzero" />
		<path id="Vector" d="M23.333 30.3333L21.333 30.3333C20.7863 30.3333 20.333 29.8799 20.333 29.3333C20.333 28.7866 20.7863 28.3333 21.333 28.3333L23.333 28.3333C26.093 28.3333 28.333 26.0933 28.333 23.3333L28.333 21.3333C28.333 20.7866 28.7863 20.3333 29.333 20.3333C29.8797 20.3333 30.333 20.7866 30.333 21.3333L30.333 23.3333C30.333 27.1999 27.1863 30.3333 23.333 30.3333Z" fill="rgb(31,215,243)" fill-rule="nonzero" />
		<path id="Vector" d="M12.0003 30.3333L8.66699 30.3333C4.81366 30.3333 1.66699 27.2 1.66699 23.3333L1.66699 20C1.66699 19.4533 2.12033 19 2.66699 19C3.21366 19 3.66699 19.4533 3.66699 20L3.66699 23.3333C3.66699 26.0933 5.90699 28.3333 8.66699 28.3333L12.0003 28.3333C12.547 28.3333 13.0003 28.7867 13.0003 29.3333C13.0003 29.88 12.547 30.3333 12.0003 30.3333Z" fill="rgb(31,215,243)" fill-rule="nonzero" />
		<path id="Vector" d="M18.6663 24.3334L13.333 24.3334C10.1063 24.3334 8.33301 22.5601 8.33301 19.3334L8.33301 12.6667C8.33301 9.44008 10.1063 7.66675 13.333 7.66675L18.6663 7.66675C21.893 7.66675 23.6663 9.44008 23.6663 12.6667L23.6663 19.3334C23.6663 22.5601 21.893 24.3334 18.6663 24.3334ZM13.333 9.66675C11.2263 9.66675 10.333 10.5601 10.333 12.6667L10.333 19.3334C10.333 21.4401 11.2263 22.3334 13.333 22.3334L18.6663 22.3334C20.773 22.3334 21.6663 21.4401 21.6663 19.3334L21.6663 12.6667C21.6663 10.5601 20.773 9.66675 18.6663 9.66675L13.333 9.66675Z" fill="rgb(31,215,243)" fill-rule="nonzero" />
		<path id="Vector" d="M25.3337 17L6.66699 17C6.12033 17 5.66699 16.5467 5.66699 16C5.66699 15.4533 6.12033 15 6.66699 15L25.3337 15C25.8803 15 26.3337 15.4533 26.3337 16C26.3337 16.5467 25.8803 17 25.3337 17Z" fill="rgb(31,215,243)" fill-rule="nonzero" />
		<path id="Vector" opacity="0" />
	</g>
</svg>
