<svg width="93" height="93" viewBox="0 0 93 93" fill="none" xmlns="http://www.w3.org/2000/svg">
<rect width="92.5" height="92.5" rx="46.25" fill="#E6F3FB"/>
<g clip-path="url(#clip0_1425_46034)">
<path d="M20.5029 50.5516V42.2884C21.1267 41.2639 22.3287 40.8666 22.9542 42.1109C23.2331 46.5519 22.4673 50.8187 24.1798 55.0501C25.2448 57.6806 26.9675 59.3728 28.7239 61.4639C29.0401 67.1424 29.2564 62.6456 29.4272 68.3241C29.4745 69.903 29.8076 71.5935 29.5878 73.1928C29.3866 74.6584 28.5549 76.0886 28.4247 77.9313C28.3436 79.0825 28.8473 81.669 27.811 82.2066C25.4257 83.4458 25.8078 79.0622 25.8974 77.7622C26.1053 74.7683 27.1399 72.9882 27.0824 69.6596C26.981 63.8881 26.3606 68.2294 26.2287 62.4444C23.7639 59.8123 21.7945 56.9452 20.9864 53.3579L20.5046 50.5516H20.5029Z" fill="#0189D5"/>
<path d="M57.9092 9.58002C65.4996 10.5622 65.4151 22.4618 57.3277 22.9081C48.6181 23.3899 47.9892 10.6028 55.8873 9.58002C56.3489 9.52085 57.4494 9.52085 57.9092 9.58002ZM53.9263 13.3516C50.2055 17.1248 56.0023 23.1752 59.9395 19.1162C63.6451 15.2957 57.8044 9.41942 53.9263 13.3516Z" fill="#0189D5"/>
<path d="M66.1871 53.2715L65.0207 75.534C66.4238 76.8814 66.5421 79.1297 66.3342 80.964C66.2429 81.772 65.9623 82.3434 65.0748 82.4009L48.3116 82.2995C47.8805 82.0949 47.7148 81.9445 47.6472 81.461C47.3784 79.5659 47.4207 76.8374 48.8086 75.3954L47.6404 53.3595C44.0869 52.2437 42.3051 49.9869 42.0651 46.2576C41.7557 41.4565 41.7608 37.734 42.0651 32.9295C42.2189 30.4952 43.0033 28.4124 45.0505 26.9806C46.0818 26.2587 50.6969 24.793 51.9377 24.7542C54.2588 24.6798 55.0179 26.7473 56.8115 26.7946C59.0126 26.8521 59.4994 24.5378 62.1874 24.7761C63.1881 24.864 66.7112 25.9308 67.6815 26.3635C70.0043 27.4015 71.4497 29.5806 71.7253 32.0978C71.3686 37.9977 72.2138 41.093 71.7253 46.9236C71.4531 50.1644 69.3569 52.5751 66.1888 53.2715H66.1871ZM44.5975 32.4308C44.4149 34.1535 44.7327 36.1584 44.5975 37.9115H47.6303V33.2744C47.6303 32.9938 48.5905 32.4629 49.0216 32.5407C49.4527 32.6185 50.1576 33.3809 50.1576 33.7798V50.8879H63.5533L63.8069 50.6343V43.5511C63.8069 43.1014 64.6285 42.6889 65.0731 42.7058C65.5177 42.7227 66.3342 43.3533 66.3342 43.7201V50.5498C67.4939 50.445 69.1979 48.3116 69.1979 47.2617V40.4405H66.3342C66.745 42.3051 65.4957 44.3202 63.8813 42.4742C63.9523 39.7136 63.533 36.4813 63.7967 33.7697C63.91 32.61 65.1491 32.1045 65.9505 32.8991C65.991 32.9397 66.3342 33.5719 66.3342 33.6108V37.9115H69.1979V31.9253C69.1979 31.4605 68.3223 29.9035 67.9588 29.54C67.1186 28.6998 63.3589 27.5198 62.1248 27.3559C60.8907 27.1919 60.5374 28.1301 59.54 28.6677C58.0135 29.491 56.1708 29.5857 54.5918 28.8368C53.8396 28.4801 52.7864 27.2832 52.0966 27.2815C51.5607 27.2815 48.697 28.1842 48.0056 28.4243C46.004 29.1191 44.8308 30.2044 44.5958 32.4325L44.5975 32.4308ZM47.6303 50.5515V40.6941L47.3767 40.4405H44.8494C44.6093 40.5893 44.6161 40.7769 44.5873 41.022C44.3777 42.8123 44.3963 46.1088 44.8105 47.7216C45.1368 48.9928 46.288 50.3672 47.6286 50.5515H47.6303ZM63.6378 53.4169H50.1576L51.3376 74.4707H55.7177V57.0414C55.7177 56.0474 58.2451 55.9257 58.2451 57.3795V74.4707H62.4578L63.6378 53.4169ZM55.7177 77.0014H51.084C50.0748 77.0014 50.0612 79.172 50.1576 79.8685H55.7177V77.0014ZM63.8069 79.8685C64.0013 79.1416 63.6598 77.0014 62.7114 77.0014H58.2468V79.8685H63.8069Z" fill="#0189D5"/>
<path d="M33.8137 40.6095H36.6774V36.4779C36.6774 35.254 38.9934 34.593 39.2132 36.3004C39.1676 43.8925 39.1676 48.1205 39.3806 55.6873C39.6511 65.3368 40.2072 64.7992 40.5538 74.4723H44.0075C44.0616 74.4723 44.6837 75.1114 44.7311 75.2652C45.4546 77.6455 41.842 76.856 40.6332 76.998C39.1236 77.1755 39.1709 78.6564 39.2048 79.8685H43.8385C43.945 79.8685 44.6077 80.3909 44.677 80.5447C45.059 81.3832 44.5502 82.2471 43.6593 82.3891C42.8309 82.5209 38.3933 82.5311 37.6393 82.362C35.9606 81.9867 36.6977 77.4663 37.3773 76.2694C37.521 76.0158 37.8506 75.8349 37.9369 75.6489C38.2175 75.037 37.7543 66.5573 37.6934 65.1052C37.4652 59.5518 37.1305 64.1179 36.8363 58.5679C36.7924 57.7379 36.8786 56.8892 36.8515 56.0575C33.6565 55.1142 31.5433 52.8759 31.2779 49.4611C31.616 43.6914 30.8485 40.8361 31.2779 35.1221C31.5061 32.0707 33.1848 29.7953 36.0807 28.7996C37.0544 28.4648 39.2758 27.6973 39.389 29.3946C39.4955 30.9922 37.4213 30.9398 36.3427 31.4232C35.2642 31.9067 33.812 33.5398 33.812 34.7925V40.6095H33.8137ZM36.6791 43.1386H34.0673C33.8272 43.2873 33.834 43.475 33.8052 43.7201C33.5787 45.6524 33.5973 47.8281 33.8576 49.7468C34.074 51.3443 35.1154 52.7627 36.6791 53.2479V43.1386Z" fill="#0189D5"/>
<path d="M27.0245 37.942C27.6432 37.8457 28.3617 38.3765 28.4107 39.0189C29.1359 45.1555 26.4683 51.2109 31.1172 56.0323C31.6514 56.5868 33.5769 57.7194 33.795 58.0744C34.3427 58.9653 34.0858 61.5045 34.1416 62.6169C34.407 67.7882 34.6166 62.8045 34.8161 67.9876C34.8803 69.6444 35.352 72.5318 35.1626 74.0566C35.0054 75.3245 33.9421 76.5687 33.8052 78.43C33.7274 79.4899 34.194 81.5524 33.298 82.1373C30.5847 83.9123 31.2694 77.8417 31.4976 76.6279C31.6937 75.5882 32.6455 73.94 32.6455 73.2097C32.6455 72.8158 32.4595 72.4405 32.4544 72.0347C32.3733 64.6235 31.7157 67.352 31.6142 59.9154C31.5213 59.4235 29.6955 58.1995 29.1731 57.6366C23.9004 51.948 26.5224 46.3963 25.8851 39.3418C25.8648 38.7907 26.5004 38.0232 27.0194 37.942H27.0245Z" fill="#0189D5"/>
<path d="M42.6937 23.8668C42.1629 24.5244 41.0438 24.3469 40.5941 23.6216C39.0557 21.1433 40.4521 17.2974 42.8594 15.8503C43.9599 15.1893 47.0012 14.1446 47.2615 16.1106C47.4559 17.5865 46.024 17.3515 45.2616 17.5797C43.2888 18.1714 42.3319 19.534 42.5906 21.6234C42.6734 22.298 43.2769 23.1415 42.6937 23.8651V23.8668Z" fill="#0189D5"/>
</g>
<defs>
<clipPath id="clip0_1425_46034">
<rect width="51.3766" height="72.951" fill="white" transform="translate(20.5029 9.53613)"/>
</clipPath>
</defs>
</svg>
