<svg width="41" height="41" viewBox="0 0 41 41" fill="none" xmlns="http://www.w3.org/2000/svg">
<g clip-path="url(#clip0_430_14379)">
<path d="M14.4815 38.1928H5.64244V27.7822H0V25.0384C0 25.0352 0.0437804 24.9914 0.0470476 24.9914H13.651C14.6645 26.6799 16.1824 27.992 18.0238 28.7075V32.7366H13.698V28.0175C13.698 28.0142 13.6543 27.9704 13.651 27.9704H9.26249C9.25922 27.9704 9.21544 28.0142 9.21544 28.0175V32.7993H13.4314C13.4576 32.7993 13.487 32.8751 13.4798 32.9078C13.4517 33.9265 13.4981 34.9583 13.5098 35.9665C13.5183 36.6977 13.504 37.4309 13.5098 38.1614C13.5425 38.1941 14.2966 38.1425 14.4364 38.1601C14.4612 38.1634 14.4835 38.1614 14.4815 38.1922V38.1928Z" fill="#FEFFFF"/>
<path d="M40.9997 22.7024V25.4305H34.2287V31.6708H30.1539V28.4723H26.3456C26.3424 28.4723 26.2986 28.516 26.2986 28.5193V40.9209H22.1924V29.1309C25.3086 28.733 27.9655 26.4192 28.964 23.4721C29.0496 23.2199 29.092 22.9409 29.1979 22.703H40.9997V22.7024Z" fill="#FEFFFF"/>
<path d="M2.75802 14.5495H14.0423V0H18.2112V12.7153C16.1182 13.4765 14.3546 15.0114 13.394 17.028C9.84849 17.0221 6.30228 17.0312 2.75737 17.0266C2.75149 16.2014 2.76521 15.3748 2.75737 14.5495H2.75802Z" fill="#FEFFFF"/>
<path d="M26.2992 0V12.8564H38.2734V15.3963H27.4904C27.4446 15.2983 27.3336 15.165 27.2558 15.082C26.2051 13.9679 24.9786 13.1197 23.5024 12.6597C23.1947 12.5637 22.8634 12.5107 22.5693 12.4016V0H26.2992Z" fill="#FEFFFF"/>
<path d="M2.75816 17.0266C1.83943 17.0253 0.918735 17.0273 0 17.0266V2.08512C0 1.21605 1.10758 0 1.99037 0H13.7294V2.63401H2.7268C2.75555 6.56967 2.68955 10.5079 2.72418 14.4436C2.72418 14.5011 2.75751 14.5442 2.75751 14.5495C2.76535 15.3748 2.75163 16.2014 2.75751 17.0266H2.75816Z" fill="#FEFFFF"/>
<path d="M41 12.6368H38.4607V2.53992H27.4268V0H39.0403C39.8336 0 40.9993 1.16704 40.9993 1.95966V12.6368H41Z" fill="#FEFFFF"/>
<path d="M20.4933 14.4965C25.5679 14.126 29.0742 19.4287 26.6173 23.9152C24.2264 28.2815 17.9429 28.2756 15.5304 23.9263C13.3519 19.9991 15.9669 14.8272 20.4933 14.4965ZM20.8063 16.0328C17.0144 16.2314 14.9691 20.5696 17.1823 23.6532C19.3223 26.6348 23.9193 26.1401 25.3947 22.7867C26.8231 19.5391 24.3636 15.8465 20.8063 16.0328Z" fill="#FEFFFF"/>
<path d="M13.1341 17.5599C12.6486 18.8831 12.4075 20.3207 12.6016 21.7301H0V17.5599H13.1341Z" fill="#FEFFFF"/>
<path d="M40.9995 15.8041V19.5359H29.3075C29.1428 18.1891 28.6031 16.9097 27.834 15.8041H40.9995Z" fill="#FEFFFF"/>
<path d="M40.9997 28.6605V38.9613C40.9997 39.7624 39.8359 40.9209 39.0407 40.9209H37.8965V28.6605H40.9997Z" fill="#FEFFFF"/>
<path d="M11.0958 5.48761H5.20312V11.7279H11.0958V5.48761Z" fill="#FEFFFF"/>
<path d="M30.0292 31.7022H26.5811V40.9209H30.0292V31.7022Z" fill="#FEFFFF"/>
<path d="M35.6094 4.54663H29.9355V9.90875H35.6094V4.54663Z" fill="#FEFFFF"/>
<path d="M5.26606 28.1586H0V33.0189H5.26606V28.1586Z" fill="#FEFFFF"/>
<path d="M5.26606 36.1234V40.921H1.95901C1.1115 40.921 0 39.7036 0 38.8672V36.1234H5.26606Z" fill="#FEFFFF"/>
<path d="M37.4272 34.8381H33.8535V40.9216H37.4272V34.8381Z" fill="#FEFFFF"/>
<path d="M13.5096 35.9666H18.2117V40.9209H14.4819V38.1928C14.4832 38.1621 14.4617 38.1641 14.4368 38.1608C14.297 38.1432 13.5429 38.1948 13.5102 38.1621C13.5044 37.4309 13.5187 36.6978 13.5102 35.9672L13.5096 35.9666Z" fill="#FEFFFF"/>
<path d="M20.9012 18.1022C22.9687 17.9552 24.322 20.1834 23.5359 22.0235C22.7184 23.9375 20.1622 24.2792 18.9194 22.5737C17.653 20.8349 18.7279 18.2565 20.9006 18.1016L20.9012 18.1022Z" fill="#FEFFFF"/>
</g>
<defs>
<clipPath id="clip0_430_14379">
<rect width="41" height="40.9209" fill="white"/>
</clipPath>
</defs>
</svg>
